<?xml version="1.0" encoding="UTF-8"?>
<!DOCTYPE svg PUBLIC "-//W3C//DTD SVG 1.1//EN" "http://www.w3.org/Graphics/SVG/1.1/DTD/svg11.dtd">
<!-- Creator: CorelDRAW 2020 (64 Bit) -->
<svg xmlns="http://www.w3.org/2000/svg" xml:space="preserve" width="21.5197mm" height="4.3282mm" version="1.1" style="shape-rendering:geometricPrecision; text-rendering:geometricPrecision; image-rendering:optimizeQuality; fill-rule:evenodd; clip-rule:evenodd"
viewBox="0 0 103.81 20.88"
 xmlns:xlink="http://www.w3.org/1999/xlink"
 xmlns:xodm="http://www.corel.com/coreldraw/odm/2003">
 <defs>
  <style type="text/css">
   <![CDATA[
    .fil0 {fill:#FF725E}
    .fil1 {fill:white}
    .fil2 {fill:white;fill-rule:nonzero}
   ]]>
  </style>
 </defs>
 <g id="Camada_x0020_1">
  <metadata id="CorelCorpID_0Corel-Layer"/>
  <path class="fil0" d="M10.44 0l82.93 0c5.74,0 10.44,4.7 10.44,10.44l0 0c0,5.74 -4.7,10.44 -10.44,10.44l-82.93 0c-5.74,0 -10.44,-4.7 -10.44,-10.44l0 0c0,-5.74 4.7,-10.44 10.44,-10.44z"/>
  <g id="_2746372899024">
   <path class="fil1" d="M8.18 14.97c0.08,-0.33 0.22,-0.7 0.33,-1.01 0.2,-0.57 0.33,-0.7 0.15,-0.96 -2.67,-3.9 1.47,-8.97 5.89,-7.21 0.88,0.35 1.27,0.72 1.9,1.33 0.24,0.24 0.62,0.88 0.77,1.2 1.59,3.39 -1.26,7.37 -5.17,6.83 -0.97,-0.14 -1.2,-0.37 -1.88,-0.68 -0.29,-0.14 -1.55,0.43 -1.99,0.51zm3.2 -5.1c0.14,-0.33 0.61,-0.49 0.39,-1 -0.35,-0.85 -0.38,-1.4 -1.14,-1.16 -0.37,0.11 -0.83,0.84 -0.71,1.6 0.29,1.83 3.63,4.57 5.27,3.47 0.27,-0.18 0.57,-0.5 0.52,-0.99 -0.03,-0.27 -0.69,-0.5 -0.94,-0.62 -0.61,-0.28 -0.53,-0.19 -0.89,0.24 -0.37,0.44 -0.37,0.39 -0.98,0.07 -0.57,-0.31 -1.43,-1.09 -1.52,-1.61zm-4.64 6.44l0.06 0.06 2.64 -0.83c0.54,-0.19 0.41,-0.17 0.9,0.05 1.79,0.81 3.88,0.66 5.56,-0.4 0.53,-0.33 0.89,-0.71 1.27,-1.1 1.57,-1.62 1.8,-4.36 0.81,-6.35 -0.73,-1.46 -2.08,-2.59 -3.65,-3.01 -1.48,-0.4 -2.58,-0.3 -4,0.3 -0.88,0.37 -1.23,0.76 -1.74,1.23 -0.31,0.28 -0.57,0.6 -0.79,0.97 -1.08,1.76 -1.17,3.77 -0.3,5.6 0.22,0.45 0.31,0.3 0.13,0.83 -0.21,0.62 -0.8,2.2 -0.88,2.64z"/>
   <path class="fil2" d="M23.74 15.71l1.47 0c-0.84,-1.48 -1.2,-2.97 -1.2,-4.63 0,-1.66 0.36,-3.15 1.2,-4.63l-1.47 0c-0.79,1.18 -1.24,2.81 -1.24,4.63 0,1.82 0.45,3.43 1.24,4.63zm4.16 -3.23l1.59 -1.5c0.97,-0.9 1.16,-1.51 1.16,-2.19 0,-1.26 -1.03,-2.05 -2.57,-2.05 -1.25,0 -2.22,0.5 -2.75,1.29l1.17 0.75c0.34,-0.47 0.84,-0.69 1.43,-0.69 0.73,0 1.11,0.32 1.11,0.86 0,0.34 -0.11,0.69 -0.72,1.28l-2.67 2.52 0 1.04 5.23 0 0 -1.31 -2.98 0zm3.33 -5.62l0 1.29 1.38 0 0 5.64 1.6 0 0 -6.93 -2.99 0zm5.38 8.85c0.81,-1.2 1.25,-2.81 1.25,-4.63 0,-1.82 -0.44,-3.45 -1.25,-4.63l-1.47 0c0.85,1.48 1.21,2.97 1.21,4.63 0,1.66 -0.36,3.15 -1.21,4.63l1.47 0zm7.59 -8.96c-1.46,0 -2.62,0.89 -2.62,2.31 0,1.31 1.05,2.16 2.38,2.16 0.72,0 1.32,-0.22 1.72,-0.62 -0.05,1.34 -0.8,2.02 -1.95,2.02 -0.48,0 -0.92,-0.09 -1.3,-0.35l-0.59 1.18c0.48,0.31 1.19,0.47 1.92,0.47 2.1,0 3.53,-1.34 3.53,-3.73 0,-2.24 -1.18,-3.43 -3.1,-3.43zm0.12 3.27c-0.71,0 -1.18,-0.41 -1.18,-1.04 0,-0.63 0.48,-1.03 1.16,-1.03 0.76,0 1.21,0.44 1.21,1.03 0,0.6 -0.48,1.04 -1.19,1.04zm3.58 -3.15l0 2.43 1.42 0 0 -1.13 2.3 0 -2.48 5.62 1.74 0 2.57 -5.89 0 -1.04 -5.55 0zm9.43 2.82l1.56 -1.78 0 -1.04 -4.85 0 0 1.29 2.95 0 -1.42 1.61 0 1.06 0.73 0c0.91,0 1.3,0.33 1.3,0.85 0,0.56 -0.49,0.89 -1.3,0.89 -0.72,0 -1.45,-0.23 -1.98,-0.62l-0.62 1.23c0.67,0.47 1.67,0.74 2.64,0.74 1.97,0 2.87,-1.07 2.87,-2.24 0,-1.02 -0.63,-1.79 -1.88,-1.99zm5.96 -0.24c-0.72,0 -1.31,0.21 -1.71,0.61 0.05,-1.33 0.79,-2.01 1.95,-2.01 0.47,0 0.91,0.09 1.3,0.35l0.59 -1.18c-0.48,-0.31 -1.2,-0.47 -1.93,-0.47 -2.09,0 -3.53,1.34 -3.53,3.73 0,2.24 1.19,3.43 3.1,3.43 1.46,0 2.62,-0.89 2.62,-2.31 0,-1.31 -1.05,-2.16 -2.38,-2.16zm-0.33 3.27c-0.77,0 -1.22,-0.44 -1.22,-1.03 0,-0.6 0.49,-1.04 1.2,-1.04 0.71,0 1.18,0.41 1.18,1.04 0,0.63 -0.48,1.03 -1.16,1.03zm5.49 -0.23l1.59 -1.5c0.97,-0.9 1.16,-1.51 1.16,-2.19 0,-1.26 -1.03,-2.05 -2.57,-2.05 -1.25,0 -2.22,0.5 -2.75,1.29l1.17 0.75c0.34,-0.47 0.84,-0.69 1.43,-0.69 0.73,0 1.11,0.32 1.11,0.86 0,0.34 -0.11,0.69 -0.72,1.28l-2.67 2.52 0 1.04 5.23 0 0 -1.31 -2.98 0zm3.73 -0.86l2.8 0 0 -1.24 -2.8 0 0 1.24zm3.17 -4.76l0 1.29 1.38 0 0 5.64 1.6 0 0 -6.93 -2.99 0zm8.94 3.28c0.51,-0.32 0.81,-0.8 0.81,-1.42 0,-1.22 -1.09,-1.98 -2.68,-1.98 -1.57,0 -2.66,0.76 -2.66,1.98 0,0.62 0.29,1.11 0.8,1.42 -0.66,0.34 -1.05,0.89 -1.05,1.63 0,1.31 1.16,2.13 2.91,2.13 1.76,0 2.93,-0.82 2.93,-2.13 0,-0.74 -0.39,-1.3 -1.06,-1.63zm-1.87 -2.23c0.65,0 1.09,0.33 1.09,0.87 0,0.52 -0.43,0.85 -1.09,0.85 -0.65,0 -1.07,-0.33 -1.07,-0.85 0,-0.54 0.43,-0.87 1.07,-0.87zm0 4.81c-0.79,0 -1.29,-0.39 -1.29,-1 0,-0.61 0.49,-0.99 1.29,-0.99 0.8,0 1.31,0.38 1.31,0.99 0,0.61 -0.5,1 -1.31,1zm6.9 -3.05l1.56 -1.78 0 -1.04 -4.85 0 0 1.29 2.95 0 -1.42 1.61 0 1.06 0.73 0c0.91,0 1.3,0.33 1.3,0.85 0,0.56 -0.49,0.89 -1.3,0.89 -0.72,0 -1.45,-0.23 -1.98,-0.62l-0.62 1.23c0.67,0.47 1.67,0.74 2.64,0.74 1.97,0 2.87,-1.07 2.87,-2.24 0,-1.02 -0.63,-1.79 -1.88,-1.99zm4.9 -0.22l-0.56 0 0.11 -1.32 2.89 0 0 -1.29 -4.23 0 -0.36 3.9 1.77 0c1.26,0 1.61,0.36 1.61,0.9 0,0.56 -0.49,0.9 -1.3,0.9 -0.72,0 -1.44,-0.23 -1.97,-0.62l-0.63 1.23c0.67,0.47 1.68,0.74 2.64,0.74 1.98,0 2.88,-1.07 2.88,-2.3 0,-1.23 -0.81,-2.15 -2.86,-2.15z"/>
  </g>
 </g>
</svg>
