<?xml version="1.0" encoding="UTF-8"?>
<!DOCTYPE svg PUBLIC "-//W3C//DTD SVG 1.1//EN" "http://www.w3.org/Graphics/SVG/1.1/DTD/svg11.dtd">
<!-- Creator: CorelDRAW 2020 (64 Bit) -->
<svg xmlns="http://www.w3.org/2000/svg" xml:space="preserve" width="195.16mm" height="52.7841mm" version="1.1" style="shape-rendering:geometricPrecision; text-rendering:geometricPrecision; image-rendering:optimizeQuality; fill-rule:evenodd; clip-rule:evenodd"
viewBox="0 0 1002.69 271.19"
 xmlns:xlink="http://www.w3.org/1999/xlink"
 xmlns:xodm="http://www.corel.com/coreldraw/odm/2003">
 <defs>
  <style type="text/css">
   <![CDATA[
    .fil1 {fill:#FF725E;fill-rule:nonzero}
    .fil0 {fill:white;fill-rule:nonzero}
   ]]>
  </style>
 </defs>
 <g id="Camada_x0020_1">
  <metadata id="CorelCorpID_0Corel-Layer"/>
  <g id="_1907608478080">
   <path class="fil0" d="M112.71 59.11l0 77.07c0,28.68 -15.07,42.01 -35.93,42.01 -19.99,0 -31.58,-11.59 -31.58,-37.67l0 -81.42 -45.2 0 0 88.08c0,48.1 27.53,70.12 66.64,70.12 19.12,0 36.51,-7.24 48.39,-20.86l0 18.54 42.88 0 0 -155.88 -45.2 0zm151.6 -2.32c-20.86,0 -37.67,6.66 -48.97,20.28l0 -17.96 -43.17 0 0 212.09 45.2 0 0 -72.72c11.59,12.75 27.53,18.83 46.94,18.83 43.75,0 77.65,-31.29 77.65,-80.26 0,-48.97 -33.9,-80.26 -77.65,-80.26zm-7.82 123.43c-22.6,0 -39.69,-16.23 -39.69,-43.17 0,-26.95 17.09,-43.17 39.69,-43.17 22.6,0 39.69,16.23 39.69,43.17 0,26.95 -17.09,43.17 -39.69,43.17zm214.83 36.22c25.79,0 47.52,-10.43 59.69,-30.13l-15.36 -10.43c-10.43,15.36 -26.66,22.31 -44.33,22.31 -33.32,0 -57.66,-23.47 -57.66,-59.4 0,-35.64 24.34,-59.4 57.66,-59.4 17.67,0 33.9,7.24 44.33,22.6l15.36 -10.43c-12.17,-19.99 -33.9,-30.13 -59.69,-30.13 -45.49,0 -78.52,31.87 -78.52,77.36 0,45.49 33.03,77.65 78.52,77.65zm133.96 0c44.62,0 77.36,-32.45 77.36,-77.65 0,-45.2 -32.74,-77.36 -77.36,-77.36 -44.62,0 -77.65,32.16 -77.65,77.36 0,45.2 33.03,77.65 77.65,77.65zm0 -18.25c-32.45,0 -56.79,-23.76 -56.79,-59.4 0,-35.64 24.34,-59.4 56.79,-59.4 32.45,0 56.5,23.76 56.5,59.4 0,35.64 -24.05,59.4 -56.5,59.4zm212.18 -198.18l0 91.56c-12.75,-19.7 -33.61,-30.13 -57.95,-30.13 -43.46,0 -75.91,31.29 -75.91,77.36 0,46.07 32.45,77.65 75.91,77.65 25.21,0 46.36,-11.01 58.82,-31.58l0 30.13 19.7 0 0 -214.98 -20.57 0zm-56.21 198.18c-32.45,0 -56.79,-23.76 -56.79,-59.4 0,-35.64 24.34,-59.4 56.79,-59.4 32.16,0 56.5,23.76 56.5,59.4 0,35.64 -24.34,59.4 -56.5,59.4zm241.45 -59.4c0,-45.78 -31,-77.36 -73.88,-77.36 -42.88,0 -74.46,32.16 -74.46,77.36 0,45.2 32.45,77.65 79.97,77.65 24.05,0 45.2,-8.69 58.82,-24.92l-11.59 -13.33c-11.59,13.33 -28.1,19.99 -46.65,19.99 -33.32,0 -57.66,-21.15 -59.98,-53.02l127.48 0c0,-2.32 0.29,-4.64 0.29,-6.37zm-73.88 -59.69c29.84,0 51.57,20.86 54.18,50.7l-108.07 0c2.61,-29.84 24.34,-50.7 53.89,-50.7z"/>
   <path class="fil1" d="M347.53 144.58l35.93 0 8.98 -132.41 -53.89 0 8.98 132.41zm17.96 72.72c16.23,0 27.81,-11.88 27.81,-26.37 0,-14.78 -11.59,-25.79 -27.81,-25.79 -16.23,0 -27.81,11.01 -27.81,25.79 0,14.49 11.59,26.37 27.81,26.37z"/>
  </g>
  <path class="fil0" d="M397.71 270.94l11.99 0c9.42,0 15.77,-6.06 15.77,-14.72 0,-8.66 -6.35,-14.72 -15.77,-14.72l-11.99 0 0 29.44zm3.11 -2.69l0 -24.06 8.71 0c7.82,0 12.87,4.96 12.87,12.03 0,7.07 -5.05,12.03 -12.87,12.03l-8.71 0zm37.98 0l0 -10.94 15.23 0 0 -2.65 -15.23 0 0 -10.47 17.08 0 0 -2.69 -20.19 0 0 29.44 20.82 0 0 -2.69 -17.71 0zm36.39 2.94c7.53,0 10.98,-3.7 10.98,-8.03 0,-10.73 -18.13,-5.85 -18.13,-13.92 0,-2.94 2.4,-5.34 7.78,-5.34 2.61,0 5.55,0.8 8.08,2.44l1.05 -2.48c-2.36,-1.64 -5.8,-2.61 -9.13,-2.61 -7.49,0 -10.85,3.74 -10.85,8.08 0,10.89 18.13,5.93 18.13,14.01 0,2.9 -2.4,5.22 -7.91,5.22 -3.87,0 -7.61,-1.51 -9.72,-3.57l-1.22 2.4c2.19,2.27 6.52,3.83 10.94,3.83zm24.1 -2.94l0 -10.94 15.23 0 0 -2.65 -15.23 0 0 -10.47 17.08 0 0 -2.69 -20.19 0 0 29.44 20.82 0 0 -2.69 -17.71 0zm49.8 -26.75l0 23.89 -18.97 -23.89 -2.57 0 0 29.44 3.11 0 0 -23.89 18.93 23.89 2.57 0 0 -29.44 -3.07 0zm36.89 0l-11.36 25.57 -11.27 -25.57 -3.36 0 13.04 29.44 3.07 0 13.04 -29.44 -3.15 0zm23.26 29.69c8.83,0 15.44,-6.35 15.44,-14.97 0,-8.62 -6.6,-14.97 -15.44,-14.97 -8.92,0 -15.48,6.39 -15.48,14.97 0,8.58 6.56,14.97 15.48,14.97zm0 -2.78c-7.11,0 -12.41,-5.17 -12.41,-12.2 0,-7.02 5.3,-12.2 12.41,-12.2 7.07,0 12.32,5.17 12.32,12.2 0,7.02 -5.26,12.2 -12.32,12.2zm25.66 2.52l19.6 0 0 -2.69 -16.49 0 0 -26.75 -3.11 0 0 29.44zm47.11 -29.44l-11.36 25.57 -11.27 -25.57 -3.36 0 13.04 29.44 3.07 0 13.04 -29.44 -3.15 0zm10.65 29.44l3.11 0 0 -29.44 -3.11 0 0 29.44zm43.96 -29.44l-12.66 21.83 -12.79 -21.83 -2.57 0 0 29.44 2.99 0 0 -23.43 11.57 19.68 1.47 0 11.57 -19.81 0 23.55 2.99 0 0 -29.44 -2.57 0zm18.51 26.75l0 -10.94 15.23 0 0 -2.65 -15.23 0 0 -10.47 17.08 0 0 -2.69 -20.19 0 0 29.44 20.82 0 0 -2.69 -17.71 0zm49.8 -26.75l0 23.89 -18.97 -23.89 -2.57 0 0 29.44 3.11 0 0 -23.89 18.93 23.89 2.57 0 0 -29.44 -3.07 0zm21.62 29.44l3.11 0 0 -26.75 10.35 0 0 -2.69 -23.81 0 0 2.69 10.35 0 0 26.75zm34.11 0.25c8.83,0 15.44,-6.35 15.44,-14.97 0,-8.62 -6.6,-14.97 -15.44,-14.97 -8.92,0 -15.48,6.39 -15.48,14.97 0,8.58 6.56,14.97 15.48,14.97zm0 -2.78c-7.11,0 -12.41,-5.17 -12.41,-12.2 0,-7.02 5.3,-12.2 12.41,-12.2 7.07,0 12.32,5.17 12.32,12.2 0,7.02 -5.26,12.2 -12.32,12.2zm74.11 -26.92l-8.62 25.45 -8.66 -25.45 -2.9 0 -8.79 25.32 -8.5 -25.32 -3.2 0 9.93 29.44 3.24 0 8.66 -25.11 8.62 25.11 3.28 0 9.93 -29.44 -2.99 0zm15.02 26.75l0 -10.94 15.23 0 0 -2.65 -15.23 0 0 -10.47 17.08 0 0 -2.69 -20.19 0 0 29.44 20.82 0 0 -2.69 -17.71 0zm46.82 -12.49c2.69,-1.09 4.5,-3.32 4.5,-6.69 0,-4.8 -3.79,-7.57 -10.35,-7.57l-12.7 0 0 29.44 13.54 0c7.36,0 11.06,-2.86 11.06,-7.86 0,-4 -2.27,-6.48 -6.06,-7.32zm-6.06 -11.69c4.71,0 7.44,1.81 7.44,5.34 0,3.53 -2.73,5.34 -7.44,5.34l-9.38 0 0 -10.68 9.38 0zm1.01 24.31l-10.39 0 0 -11.06 10.39 0c5.17,0 7.99,1.68 7.99,5.51 0,3.87 -2.82,5.55 -7.99,5.55z"/>
 </g>
</svg>
