<?xml version="1.0" encoding="UTF-8"?>
<!DOCTYPE svg PUBLIC "-//W3C//DTD SVG 1.1//EN" "http://www.w3.org/Graphics/SVG/1.1/DTD/svg11.dtd">
<!-- Creator: CorelDRAW 2020 (64 Bit) -->
<svg xmlns="http://www.w3.org/2000/svg" xml:space="preserve" width="120.539mm" height="31.3622mm" version="1.1" style="shape-rendering:geometricPrecision; text-rendering:geometricPrecision; image-rendering:optimizeQuality; fill-rule:evenodd; clip-rule:evenodd"
viewBox="0 0 16503.95 4294.06"
 xmlns:xlink="http://www.w3.org/1999/xlink"
 xmlns:xodm="http://www.corel.com/coreldraw/odm/2003">
 <defs>
  <style type="text/css">
   <![CDATA[
    .fil1 {fill:#FF6600}
    .fil0 {fill:white;fill-rule:nonzero}
   ]]>
  </style>
 </defs>
 <g id="Camada_x0020_1">
  <metadata id="CorelCorpID_0Corel-Layer"/>
  <g id="_2797818763104">
   <g>
    <path class="fil0" d="M1384.13 4025.77c-349.02,0 -630.86,-56 -846.44,-167.2 -215.59,-111.19 -365.98,-282.46 -451.1,-514.59 -85.12,-232.14 -107.66,-530.02 -66.8,-893.65l222.7 -1982.03c6.11,-54.38 51.58,-95.02 106.29,-95.02l790.37 0c31.56,0 58.72,12.14 79.75,35.67 21.03,23.54 30.07,51.88 26.55,83.25l-231.78 2062.85c-26.44,235.38 2.03,400.95 84.52,497.55 82.49,96.58 208.51,145.28 378.96,145.28 170.45,0 307.41,-48.7 410.8,-145.28 103.37,-96.6 168.25,-262.17 194.7,-497.55l234.45 -2086.74c6.12,-54.38 51.59,-95.02 106.3,-95.02l770.89 0c31.56,0 58.72,12.14 79.75,35.67 21.03,23.54 30.07,51.88 26.55,83.25l-220 1958.14c-40.86,363.63 -128.7,661.51 -263.55,893.65 -134.85,232.13 -320.48,403.4 -557.8,514.59 -237.32,111.2 -529.33,167.2 -875.1,167.2zm2005.8 -167.62l374.64 -3334.44c5.3,-47.17 39.16,-83.9 85.74,-93.04 153.94,-30.16 312.63,-54.88 476,-73.65 190.77,-21.92 390.82,-32.46 600.22,-32.46 547.07,0 945.64,107.95 1195.73,323.85 250.08,215.91 348.87,557.61 296.33,1025.13 -49.8,443.18 -218.95,778.39 -508.27,1005.66 -289.34,227.26 -681.14,340.9 -1174.64,340.9 -47.09,0 -89.2,-0.82 -126.35,-2.44 -6.27,-0.27 -12.61,-0.55 -19.02,-0.82 -56.27,-2.41 -104.58,38.95 -110.88,94.93l-86.53 770.26c-6.12,54.37 -51.59,95.02 -106.3,95.02l-790.37 0c-31.56,0 -58.72,-12.14 -79.75,-35.68 -21.03,-23.52 -30.07,-51.86 -26.55,-83.23zm1442.21 -1609.94c183.44,0 325.36,-42.2 425.75,-126.62 100.39,-84.41 162.34,-231.32 185.88,-440.73 23.17,-206.17 -6.33,-355.52 -89.37,-447.23 -83.03,-91.72 -222.41,-137.18 -417.2,-137.18 -50.32,0 -92.63,0.81 -126.98,3.24 -6.78,0.48 -13.61,1.1 -20.48,1.82 -50.48,5.34 -89.38,43.98 -95.03,94.43l-104.37 928.94c-3.4,30.14 4.79,57.31 24.25,80.58 19.44,23.25 44.76,36.11 75,38.1 3.04,0.21 6.08,0.4 9.09,0.59 38.69,2.44 83.15,4.05 133.47,4.05zm2513.16 1775.12c-134.74,0 -275.41,-12.17 -422.84,-36.52 -115.56,-19.09 -225.41,-44.66 -329.15,-76.72 -49.55,-15.32 -80.51,-62.6 -74.72,-114.15l23.26 -206.98c3.66,-32.56 19.89,-59.12 47.21,-77.22 27.32,-18.1 58.11,-22.7 89.52,-13.38 51.28,15.21 103.13,28.68 155.43,40.39 94.21,21.11 188.26,36.53 282.85,47.09 94.6,10.54 187.3,16.22 278.2,16.22 261.36,0 460.2,-50.32 595.59,-150.16 135.4,-99.83 213.41,-245.12 234.94,-436.67 18.05,-160.71 -13.36,-285.71 -95.05,-374.99 -81.69,-89.28 -233.54,-168.01 -454.77,-236.2l-197.71 -60.87c-266.84,-81.17 -465.1,-202.1 -595.66,-362 -130.58,-159.91 -181.64,-370.13 -152.27,-631.48 35.75,-318.17 170.97,-568.17 405.69,-749.98 234.71,-181.81 564.72,-272.71 990.03,-272.71 133.11,0 263.59,8.93 391.46,26.78 90.12,12.58 172.63,28.4 247.51,47.44 52.11,13.24 85.94,62.17 79.95,115.61l-23.25 206.87c-3.59,31.89 -19.18,57.94 -45.62,76.15 -26.44,18.21 -56.33,23.5 -87.41,15.47 -70.42,-18.17 -143.37,-32.42 -219.04,-42.73 -119.12,-16.24 -240.77,-24.34 -364.15,-24.34 -189.92,0 -346.69,22.71 -470.3,68.17 -123.61,45.46 -217.75,110.38 -282.53,195.62 -64.76,85.22 -103.85,187.5 -117.17,306 -17.32,154.21 11.39,274.34 86.14,360.38 74.74,86.04 214.72,162.33 419.89,228.89l197.71 60.87c193.29,56.82 352.28,129.87 476.89,219.96 124.62,90.11 213.67,200.49 266.46,330.36 52.77,129.87 68.82,283.27 48.93,460.21 -24.62,219.15 -95.2,406.65 -212.54,562.49 -117.35,155.84 -275.23,275.16 -472.85,357.95 -197.6,82.79 -431.14,124.18 -700.61,124.18zm1783.93 -165.18l380.87 -3389.86c6.11,-54.38 51.58,-95.02 106.29,-95.02l281.46 0c31.56,0 58.71,12.14 79.75,35.67 21.03,23.54 30.07,51.88 26.55,83.25l-380.87 3389.86c-6.11,54.37 -51.58,95.02 -106.3,95.02l-281.45 0c-31.56,0 -58.72,-12.14 -79.75,-35.68 -21.03,-23.52 -30.08,-51.86 -26.55,-83.23zm2858.55 153.01c-396.1,0 -720.96,-63.31 -974.68,-189.13 -253.71,-125.8 -432.84,-323.03 -538.21,-591.69 -105.36,-268.67 -134.23,-618.5 -85.72,-1050.3 49.07,-436.69 157.91,-791.39 326.44,-1063.29 168.53,-271.91 389.83,-471.57 663.88,-599 274.06,-127.44 592.86,-190.74 956.48,-190.74 133.11,0 262.06,8.11 386.05,24.34 91.34,11.97 179.98,28.33 266.25,49.1 52.74,12.69 87.33,62.02 81.26,115.94l-23.96 213.28c-3.56,31.64 -18.92,57.49 -45.01,75.73 -26.08,18.24 -55.64,23.8 -86.57,16.28 -82.15,-19.98 -161.96,-35.34 -239.68,-45.83 -114.33,-15.42 -231.2,-22.73 -349.7,-22.73 -271.1,0 -505.01,44.65 -701.82,134.74 -196.81,90.09 -354.81,239.44 -474.85,448.04 -120.02,208.59 -200.54,491.88 -240.67,849 -38.49,342.53 -22.14,616.06 48.13,821.41 70.28,205.35 192.38,353.89 367.23,444.79 174.84,90.9 400.25,136.36 676.23,136.36 92.53,0 183.07,-4.05 270.84,-12.17 87.76,-8.12 170.93,-18.66 250.3,-31.66l-199.61 172.89 157.03 -1397.63c6.11,-54.37 51.58,-95.02 106.3,-95.02l252.23 0c31.56,0 58.72,12.14 79.75,35.68 21.03,23.52 30.07,51.86 26.55,83.23l-170.65 1518.87c-5.49,48.91 -41.97,86.67 -90.65,93.87 -111.94,16.55 -218.32,29.42 -319.51,38.58 -125.46,11.36 -250.29,17.05 -373.65,17.05zm1448.96 -153.01l380.87 -3389.86c6.11,-54.38 51.58,-95.02 106.3,-95.02l344.54 0c41.62,0 77.29,22.11 95.8,59.4l1453.77 2928.35 -104.7 0 325.02 -2892.73c6.11,-54.38 51.58,-95.02 106.29,-95.02l252.24 0c31.55,0 58.71,12.14 79.74,35.67 21.03,23.54 30.08,51.88 26.56,83.25l-380.87 3389.86c-6.12,54.37 -51.59,95.02 -106.3,95.02l-344.54 0c-41.64,0 -77.29,-22.11 -95.82,-59.4l-1453.77 -2928.35 104.72 0 -325.02 2892.73c-6.11,54.37 -51.58,95.02 -106.3,95.02l-252.23 0c-31.56,0 -58.72,-12.14 -79.75,-35.68 -21.03,-23.52 -30.07,-51.86 -26.55,-83.23z"/>
    <g>
     <path class="fil1" d="M6045.8 3181.46c307.24,0 556.31,249.07 556.31,556.3 0,307.24 -249.07,556.3 -556.31,556.3 -307.23,0 -556.3,-249.05 -556.3,-556.3 0,-307.23 249.07,-556.3 556.3,-556.3zm1060.38 -2148.51l128.76 -730.25c11.91,-67.57 -33.5,-132.44 -101.07,-144.35l-887.26 -156.44c-10.76,-1.89 -21.76,-2.38 -32.64,-1.41 -55.93,5.01 -101.95,47.15 -111.71,102.48l-128.76 730.28c-46.14,261.73 -79.04,525.97 -102.44,790.68 -31.12,352.17 -45.51,706.07 -48.47,1059.56 -0.52,61.41 42.49,113.09 102.96,123.76l543.85 95.88c60.6,10.69 119.06,-23.62 139.31,-81.73 77,-221.05 152.05,-443.11 221.73,-666.6 26.69,-85.63 52.59,-171.54 77.06,-257.84 20.07,-70.75 39.24,-141.83 56.56,-213.3 25.58,-105.5 50.48,-211.18 74.11,-317.13 24.67,-110.63 48.33,-221.93 68.01,-333.57z"/>
    </g>
   </g>
  </g>
 </g>
</svg>
