<?xml version="1.0" encoding="UTF-8"?>
<!DOCTYPE svg PUBLIC "-//W3C//DTD SVG 1.1//EN" "http://www.w3.org/Graphics/SVG/1.1/DTD/svg11.dtd">
<!-- Creator: CorelDRAW 2020 (64 Bit) -->
<svg xmlns="http://www.w3.org/2000/svg" xml:space="preserve" width="119.414mm" height="48.7496mm" version="1.1" style="shape-rendering:geometricPrecision; text-rendering:geometricPrecision; image-rendering:optimizeQuality; fill-rule:evenodd; clip-rule:evenodd"
viewBox="0 0 566.88 231.42"
 xmlns:xlink="http://www.w3.org/1999/xlink"
 xmlns:xodm="http://www.corel.com/coreldraw/odm/2003">
 <defs>
  <style type="text/css">
   <![CDATA[
    .fil0 {fill:none}
    .fil1 {fill:#131219;fill-rule:nonzero}
    .fil2 {fill:#5b1fa6;fill-rule:nonzero}
   ]]>
  </style>
 </defs>
 <g id="Camada_x0020_1">
  <metadata id="CorelCorpID_0Corel-Layer"/>
  <g id="_3022199636560">
   <polygon class="fil0" points="-0,231.42 566.88,231.42 566.88,0 -0,0 "/>
   <g>
    <path class="fil1" d="M63.72 72.39l0 43.58c0,16.21 -8.52,23.75 -20.31,23.75 -11.3,0 -17.86,-6.56 -17.86,-21.29l0 -46.02 -25.55 0 0 49.8c0,27.2 15.56,39.65 37.67,39.65 10.82,0 20.64,-4.09 27.36,-11.8l0 10.49 24.25 0 0 -88.13 -25.55 0 -0.02 -0.02zm85.71 -1.32c-11.8,0 -21.29,3.76 -27.68,11.47l0 -10.15 -24.4 0 0 119.91 25.55 0 0 -41.11c6.56,7.21 15.56,10.65 26.53,10.65 24.73,0 43.89,-17.69 43.89,-45.37 0,-27.68 -19.16,-45.37 -43.89,-45.37l0 -0.02zm-4.43 69.77c-12.78,0 -22.44,-9.17 -22.44,-24.4 0,-15.23 9.67,-24.4 22.44,-24.4 12.78,0 22.44,9.17 22.44,24.4 0,15.23 -9.67,24.4 -22.44,24.4zm121.45 20.47c14.58,0 26.86,-5.89 33.74,-17.03l-8.69 -5.89c-5.89,8.69 -15.06,12.62 -25.07,12.62 -18.84,0 -32.59,-13.27 -32.59,-33.57 0,-20.14 13.77,-33.57 32.59,-33.57 9.99,0 19.16,4.09 25.07,12.78l8.69 -5.89c-6.87,-11.3 -19.16,-17.05 -33.74,-17.05 -25.72,0 -44.39,18.03 -44.39,43.74 0,25.72 18.68,43.89 44.39,43.89l0 -0.04zm75.74 0c25.23,0 43.74,-18.34 43.74,-43.89 0,-25.55 -18.51,-43.74 -43.74,-43.74 -25.23,0 -43.89,18.17 -43.89,43.74 0,25.55 18.68,43.89 43.89,43.89zm0 -10.32c-18.34,0 -32.11,-13.43 -32.11,-33.57 0,-20.14 13.77,-33.57 32.11,-33.57 18.34,0 31.94,13.43 31.94,33.57 0,20.14 -13.6,33.57 -31.94,33.57zm119.96 -112.03l0 51.76c-7.21,-11.13 -19.01,-17.05 -32.76,-17.05 -24.57,0 -42.91,17.69 -42.91,43.74 0,26.05 18.34,43.89 42.91,43.89 14.25,0 26.22,-6.22 33.26,-17.86l0 17.05 11.13 0 0 -121.54 -11.63 0 -0 0zm-31.77 112.03c-18.34,0 -32.11,-13.43 -32.11,-33.57 0,-20.14 13.77,-33.57 32.11,-33.57 18.17,0 31.94,13.43 31.94,33.57 0,20.14 -13.77,33.57 -31.94,33.57zm136.51 -33.57c0,-25.88 -17.53,-43.74 -41.78,-43.74 -24.25,0 -42.09,18.17 -42.09,43.74 0,25.55 18.34,43.89 45.21,43.89 13.6,0 25.55,-4.91 33.26,-14.08l-6.56 -7.54c-6.56,7.54 -15.9,11.3 -26.36,11.3 -18.84,0 -32.59,-11.95 -33.9,-29.98l72.07 0c0,-1.32 0.17,-2.61 0.17,-3.61l0 0.02zm-41.78 -33.74c16.88,0 29.16,11.8 30.63,28.66l-61.1 0c1.48,-16.88 13.77,-28.66 30.48,-28.66z"/>
    <path class="fil2" d="M196.48 120.72l20.31 0 5.08 -74.87 -30.46 0 5.08 74.87 -0 0zm10.15 41.11c9.17,0 15.73,-6.71 15.73,-14.91 0,-8.36 -6.56,-14.58 -15.73,-14.58 -9.17,0 -15.73,6.22 -15.73,14.58 0,8.19 6.56,14.91 15.73,14.91z"/>
   </g>
  </g>
 </g>
</svg>
