<?xml version="1.0" encoding="UTF-8"?>
<!DOCTYPE svg PUBLIC "-//W3C//DTD SVG 1.1//EN" "http://www.w3.org/Graphics/SVG/1.1/DTD/svg11.dtd">
<!-- Creator: CorelDRAW 2020 (64 Bit) -->
<svg xmlns="http://www.w3.org/2000/svg" xml:space="preserve" width="120.539mm" height="31.3622mm" version="1.1" style="shape-rendering:geometricPrecision; text-rendering:geometricPrecision; image-rendering:optimizeQuality; fill-rule:evenodd; clip-rule:evenodd"
viewBox="0 0 12052.82 3135.95"
 xmlns:xlink="http://www.w3.org/1999/xlink"
 xmlns:xodm="http://www.corel.com/coreldraw/odm/2003">
 <defs>
  <style type="text/css">
   <![CDATA[
    .fil1 {fill:#FF6600}
    .fil0 {fill:#6E65F4;fill-rule:nonzero}
   ]]>
  </style>
 </defs>
 <g id="Camada_x0020_1">
  <metadata id="CorelCorpID_0Corel-Layer"/>
  <g id="_2797630244896">
   <g>
    <path class="fil0" d="M1010.83 2940.01c-254.89,0 -460.72,-40.9 -618.16,-122.11 -157.45,-81.2 -267.28,-206.28 -329.44,-375.81 -62.16,-169.54 -78.62,-387.08 -48.79,-652.63l162.64 -1447.47c4.46,-39.72 37.67,-69.39 77.62,-69.39l577.21 0c23.05,0 42.89,8.87 58.24,26.05 15.36,17.19 21.96,37.89 19.39,60.79l-169.27 1506.5c-19.31,171.9 1.48,292.81 61.72,363.36 60.24,70.53 152.28,106.1 276.76,106.1 124.48,0 224.5,-35.57 300,-106.1 75.49,-70.54 122.87,-191.46 142.19,-363.36l171.22 -1523.95c4.47,-39.72 37.68,-69.39 77.63,-69.39l562.98 0c23.05,0 42.89,8.87 58.24,26.05 15.36,17.19 21.96,37.89 19.39,60.79l-160.67 1430.03c-29.84,265.56 -93.99,483.1 -192.47,652.63 -98.48,169.53 -234.05,294.6 -407.36,375.81 -173.31,81.21 -386.57,122.11 -639.08,122.11zm1464.83 -122.41l273.6 -2435.14c3.87,-34.45 28.6,-61.27 62.61,-67.94 112.42,-22.03 228.31,-40.08 347.62,-53.79 139.32,-16.01 285.42,-23.71 438.34,-23.71 399.53,0 690.6,78.83 873.24,236.51 182.63,157.68 254.78,407.22 216.41,748.65 -36.37,323.65 -159.9,568.46 -371.19,734.44 -211.3,165.97 -497.44,248.96 -857.84,248.96 -34.39,0 -65.14,-0.6 -92.27,-1.78 -4.58,-0.2 -9.21,-0.4 -13.89,-0.6 -41.1,-1.76 -76.37,28.45 -80.97,69.32l-63.19 562.52c-4.47,39.71 -37.68,69.39 -77.63,69.39l-577.21 0c-23.05,0 -42.89,-8.87 -58.24,-26.06 -15.36,-17.18 -21.96,-37.88 -19.39,-60.78zm1053.25 -1175.74c133.97,0 237.61,-30.82 310.92,-92.47 73.31,-61.64 118.56,-168.94 135.75,-321.86 16.92,-150.57 -4.62,-259.64 -65.26,-326.61 -60.63,-66.98 -162.43,-100.18 -304.68,-100.18 -36.75,0 -67.64,0.59 -92.73,2.37 -4.95,0.35 -9.94,0.8 -14.96,1.33 -36.87,3.9 -65.27,32.12 -69.4,68.96l-76.22 678.4c-2.48,22.01 3.5,41.86 17.71,58.84 14.2,16.98 32.69,26.37 54.78,27.83 2.22,0.15 4.44,0.29 6.64,0.43 28.26,1.78 60.72,2.96 97.47,2.96zm1835.36 1296.37c-98.4,0 -201.13,-8.89 -308.8,-26.67 -84.39,-13.94 -164.62,-32.62 -240.38,-56.03 -36.19,-11.19 -58.79,-45.72 -54.57,-83.36l16.99 -151.16c2.67,-23.78 14.53,-43.18 34.48,-56.4 19.95,-13.22 42.44,-16.58 65.37,-9.77 37.45,11.11 75.31,20.95 113.51,29.5 68.8,15.42 137.49,26.68 206.56,34.39 69.08,7.7 136.79,11.85 203.17,11.85 190.87,0 336.08,-36.75 434.96,-109.66 98.88,-72.9 155.86,-179.01 171.58,-318.9 13.18,-117.37 -9.76,-208.65 -69.41,-273.86 -59.65,-65.2 -170.56,-122.7 -332.12,-172.49l-144.39 -44.46c-194.87,-59.27 -339.66,-147.6 -435.01,-264.37 -95.36,-116.78 -132.65,-270.31 -111.2,-461.17 26.11,-232.36 124.86,-414.93 296.27,-547.71 171.41,-132.78 412.41,-199.16 723.02,-199.16 97.21,0 192.5,6.52 285.89,19.56 65.81,9.19 126.07,20.74 180.75,34.65 38.06,9.67 62.76,45.41 58.38,84.43l-16.98 151.08c-2.62,23.29 -14.01,42.32 -33.32,55.62 -19.31,13.3 -41.14,17.16 -63.83,11.3 -51.43,-13.27 -104.7,-23.68 -159.97,-31.21 -86.99,-11.86 -175.83,-17.78 -265.94,-17.78 -138.7,0 -253.19,16.59 -343.46,49.79 -90.27,33.2 -159.03,80.61 -206.33,142.86 -47.3,62.23 -75.84,136.93 -85.57,223.47 -12.65,112.62 8.32,200.35 62.9,263.19 54.59,62.83 156.81,118.55 306.64,167.16l144.39 44.46c141.16,41.5 257.27,94.84 348.27,160.64 91.01,65.8 156.05,146.42 194.59,241.26 38.54,94.84 50.26,206.87 35.74,336.09 -17.98,160.05 -69.52,296.97 -155.22,410.78 -85.7,113.81 -201,200.95 -345.32,261.41 -144.31,60.46 -314.86,90.69 -511.66,90.69zm1302.81 -120.63l278.15 -2475.61c4.46,-39.72 37.67,-69.39 77.62,-69.39l205.55 0c23.05,0 42.88,8.87 58.24,26.05 15.36,17.19 21.96,37.89 19.39,60.79l-278.15 2475.61c-4.46,39.71 -37.67,69.39 -77.63,69.39l-205.54 0c-23.05,0 -42.89,-8.87 -58.24,-26.06 -15.36,-17.18 -21.97,-37.88 -19.39,-60.78zm2087.6 111.74c-289.27,0 -526.51,-46.24 -711.81,-138.12 -185.28,-91.87 -316.1,-235.91 -393.06,-432.11 -76.94,-196.21 -98.03,-451.69 -62.6,-767.03 35.84,-318.91 115.32,-577.95 238.4,-776.52 123.08,-198.57 284.7,-344.39 484.83,-437.45 200.14,-93.07 432.96,-139.3 698.52,-139.3 97.21,0 191.38,5.92 281.94,17.78 66.7,8.74 131.44,20.69 194.44,35.86 38.52,9.27 63.77,45.3 59.34,84.67l-17.5 155.76c-2.6,23.11 -13.82,41.99 -32.87,55.31 -19.05,13.32 -40.64,17.38 -63.22,11.89 -59.99,-14.59 -118.28,-25.81 -175.03,-33.47 -83.49,-11.26 -168.85,-16.6 -255.39,-16.6 -197.98,0 -368.81,32.61 -512.54,98.4 -143.73,65.79 -259.12,174.86 -346.78,327.2 -87.65,152.34 -146.46,359.22 -175.76,620.03 -28.11,250.15 -16.17,449.91 35.15,599.88 51.33,149.97 140.5,258.45 268.19,324.83 127.69,66.38 292.3,99.58 493.85,99.58 67.57,0 133.7,-2.96 197.79,-8.89 64.09,-5.93 124.83,-13.63 182.79,-23.12l-145.78 126.26 114.68 -1020.69c4.46,-39.71 37.67,-69.39 77.63,-69.39l184.2 0c23.05,0 42.89,8.87 58.24,26.06 15.36,17.18 21.96,37.88 19.39,60.78l-124.63 1109.23c-4.01,35.72 -30.65,63.29 -66.2,68.55 -81.75,12.09 -159.44,21.49 -233.34,28.18 -91.62,8.3 -182.78,12.45 -272.88,12.45zm1058.18 -111.74l278.15 -2475.61c4.46,-39.72 37.67,-69.39 77.63,-69.39l251.62 0c30.4,0 56.45,16.15 69.96,43.38l1061.69 2138.57 -76.46 0 237.36 -2112.56c4.46,-39.72 37.67,-69.39 77.62,-69.39l184.21 0c23.04,0 42.88,8.87 58.23,26.05 15.36,17.19 21.97,37.89 19.4,60.79l-278.15 2475.61c-4.47,39.71 -37.68,69.39 -77.63,69.39l-251.62 0c-30.41,0 -56.45,-16.15 -69.97,-43.38l-1061.69 -2138.57 76.47 0 -237.36 2112.56c-4.46,39.71 -37.67,69.39 -77.63,69.39l-184.2 0c-23.05,0 -42.89,-8.87 -58.24,-26.06 -15.36,-17.18 -21.96,-37.88 -19.39,-60.78z"/>
    <g>
     <path class="fil1" d="M4415.25 2323.42c224.38,0 406.27,181.89 406.27,406.26 0,224.38 -181.89,406.26 -406.27,406.26 -224.37,0 -406.26,-181.88 -406.26,-406.26 0,-224.37 181.89,-406.26 406.26,-406.26zm774.39 -1569.05l94.03 -533.3c8.7,-49.35 -24.47,-96.72 -73.81,-105.42l-647.96 -114.25c-7.86,-1.38 -15.89,-1.74 -23.84,-1.03 -40.85,3.66 -74.45,34.44 -81.58,74.84l-94.03 533.32c-33.7,191.14 -57.72,384.12 -74.81,577.43 -22.73,257.19 -33.24,515.65 -35.4,773.79 -0.38,44.85 31.03,82.59 75.19,90.38l397.18 70.02c44.26,7.81 86.95,-17.25 101.74,-59.68 56.24,-161.44 111.04,-323.6 161.93,-486.82 19.49,-62.53 38.41,-125.28 56.28,-188.3 14.66,-51.67 28.66,-103.58 41.31,-155.78 18.68,-77.04 36.87,-154.23 54.13,-231.6 18.02,-80.79 35.3,-162.08 49.67,-243.61z"/>
    </g>
   </g>
  </g>
 </g>
</svg>
