<svg xmlns="http://www.w3.org/2000/svg" xmlns:xlink="http://www.w3.org/1999/xlink" style="margin:auto;background:#070616;display:block;z-index:1;position:relative" width="1920" height="937" preserveAspectRatio="xMidYMid" viewBox="0 0 1920 937">
<g transform="translate(960,468.5) scale(1,1) translate(-960,-468.5)"><defs>
  <path id="path-y9xzx2sjwcl-1" d="M-35 -35L35 -35L35 35L-35 35Z" fill="none" stroke="inherit" stroke-width="4.333333333333334" transform="scale(0.3)"></path>
  <path id="path-y9xzx2sjwcl-2" d="M0 -37A37 37 0 0 1 0 37A37 37 0 0 1 0 -37" fill="none" stroke="inherit" stroke-width="4.333333333333334" transform="scale(0.3)"></path>
  <path id="path-y9xzx2sjwcl-3" d="M0 -34.641L40 34.641L-40 34.641Z" fill="none" stroke="inherit" stroke-width="4.333333333333334" transform="scale(0.3)"></path>
</defs><path id="path0" d="M 94.87490147050693 710.9938584195764
c 0 58.89255673721759 -14.40988090378728 16.9159471479242 -31.325828051711483 16.9159471479242
S 32.223245367083955 769.886415156794 32.223245367083955 710.9938584195764
s 14.40988090378728 -16.9159471479242 31.325828051711483 -16.9159471479242
S 94.87490147050693 652.1013016823589 94.87490147050693 710.9938584195764
z" fill="none" stroke="none"></path>
<use xlink:href="#path-y9xzx2sjwcl-3" x="0" y="0" stroke="#bbddff">
  <animateMotion begin="-4.700233227727067s" dur="13.195823677074054s" keyPoints="0;1" keyTimes="0;1" repeatCount="indefinite" calcMode="linear">
    <mpath xlink:href="#path0"></mpath>
  </animateMotion>
</use><path id="path1" d="M 232.9026946946576 434.2833824795186
c 0 48.09970205513278 -11.76907603476653 13.81587186689984 -25.58494790166637 13.81587186689984
S 181.73279889132488 482.3830845346514 181.73279889132488 434.2833824795186
s 11.76907603476653 -13.81587186689984 25.58494790166637 -13.81587186689984
S 232.9026946946576 386.1836804243858 232.9026946946576 434.2833824795186
z" fill="none" stroke="none"></path>
<use xlink:href="#path-y9xzx2sjwcl-2" x="0" y="0" stroke="#aabbcc">
  <animateMotion begin="-1.5477244848497085s" dur="11.228494014217706s" keyPoints="0;1" keyTimes="0;1" repeatCount="indefinite" calcMode="linear">
    <mpath xlink:href="#path1"></mpath>
  </animateMotion>
</use><path id="path2" d="M 333.85563737456556 602.1104917428157
c 0 23.747952458134552 -5.81066921847973 6.821220386910988 -12.631889605390718 6.821220386910988
S 308.59185816378414 625.8584442009503 308.59185816378414 602.1104917428157
s 5.81066921847973 -6.821220386910988 12.631889605390718 -6.821220386910988
S 333.85563737456556 578.3625392846811 333.85563737456556 602.1104917428157
z" fill="none" stroke="none"></path>
<use xlink:href="#path-y9xzx2sjwcl-2" x="0" y="0" stroke="#aabbcc">
  <animateMotion begin="-3.3089891830561644s" dur="15.950670520826645s" keyPoints="1;0" keyTimes="0;1" repeatCount="indefinite" calcMode="linear">
    <mpath xlink:href="#path2"></mpath>
  </animateMotion>
</use><path id="path3" d="M 378.3562725250085 293.927685148881
c 0 39.739531013458794 -9.723502269250554 11.414546142163696 -21.13804841141425 11.414546142163696
S 336.08017570217993 333.6672161623398 336.08017570217993 293.927685148881
s 9.723502269250554 -11.414546142163696 21.13804841141425 -11.414546142163696
S 378.3562725250085 254.1881541354222 378.3562725250085 293.927685148881
z" fill="none" stroke="none"></path>
<use xlink:href="#path-y9xzx2sjwcl-3" x="0" y="0" stroke="#ddeeff">
  <animateMotion begin="-0.5023678084518812s" dur="14.16462730208719s" keyPoints="0;1" keyTimes="0;1" repeatCount="indefinite" calcMode="linear">
    <mpath xlink:href="#path3"></mpath>
  </animateMotion>
</use><path id="path4" d="M 524.1195741414424 106.46122283777198
c 0 56.05891201281527 -13.71654230100799 16.1020279185746 -29.81857021958259 16.1020279185746
S 464.48243370227726 162.52013485058725 464.48243370227726 106.46122283777198
s 13.71654230100799 -16.1020279185746 29.81857021958259 -16.1020279185746
S 524.1195741414424 50.402310824956714 524.1195741414424 106.46122283777198
z" fill="none" stroke="none"></path>
<use xlink:href="#path-y9xzx2sjwcl-2" x="0" y="0" stroke="#bbddff">
  <animateMotion begin="-3.6123986999058415s" dur="15.029269661864719s" keyPoints="0;1" keyTimes="0;1" repeatCount="indefinite" calcMode="linear">
    <mpath xlink:href="#path4"></mpath>
  </animateMotion>
</use><path id="path5" d="M 599.8036379721137 532.7111809278783
c 0 24.11188483891127 -5.899716503137863 6.925754155857492 -12.825470658995355 6.925754155857492
S 574.1526966541231 556.8230657667896 574.1526966541231 532.7111809278783
s 5.899716503137863 -6.925754155857492 12.825470658995355 -6.925754155857492
S 599.8036379721137 508.59929608896704 599.8036379721137 532.7111809278783
z" fill="none" stroke="none"></path>
<use xlink:href="#path-y9xzx2sjwcl-3" x="0" y="0" stroke="#bbddff">
  <animateMotion begin="-2.0026564903986364s" dur="19.101255417672682s" keyPoints="0;1" keyTimes="0;1" repeatCount="indefinite" calcMode="linear">
    <mpath xlink:href="#path5"></mpath>
  </animateMotion>
</use><path id="path6" d="M 729.0708586574417 471.67346267278816
c 0 27.488411609370708 -6.725887946973683 7.895607589925628 -14.621495536899312 7.895607589925628
S 699.8278675836432 499.16187428215886 699.8278675836432 471.67346267278816
s 6.725887946973683 -7.895607589925628 14.621495536899312 -7.895607589925628
S 729.0708586574417 444.18505106341746 729.0708586574417 471.67346267278816
z" fill="none" stroke="none"></path>
<use xlink:href="#path-y9xzx2sjwcl-1" x="0" y="0" stroke="#aabbcc">
  <animateMotion begin="-0.14140525964563055s" dur="12.251856423241081s" keyPoints="0;1" keyTimes="0;1" repeatCount="indefinite" calcMode="linear">
    <mpath xlink:href="#path6"></mpath>
  </animateMotion>
</use><path id="path7" d="M 870.6748745710707 638.4790083151559
c 0 51.413657162755136 -12.579937390886894 14.767752589302008 -27.3476899801889 14.767752589302008
S 815.979494610693 689.892665477911 815.979494610693 638.4790083151559
s 12.579937390886894 -14.767752589302008 27.3476899801889 -14.767752589302008
S 870.6748745710707 587.0653511524007 870.6748745710707 638.4790083151559
z" fill="none" stroke="none"></path>
<use xlink:href="#path-y9xzx2sjwcl-1" x="0" y="0" stroke="#aabbcc">
  <animateMotion begin="-4.533669811517761s" dur="15.286725449070012s" keyPoints="1;0" keyTimes="0;1" repeatCount="indefinite" calcMode="linear">
    <mpath xlink:href="#path7"></mpath>
  </animateMotion>
</use><path id="path8" d="M 912.3989873315714 615.3010091518579
c 0 51.066457905958615 -12.494984381245192 14.668025143200879 -27.16300952444607 14.668025143200879
S 858.0729682826792 666.3674670578165 858.0729682826792 615.3010091518579
s 12.494984381245192 -14.668025143200879 27.16300952444607 -14.668025143200879
S 912.3989873315714 564.2345512458993 912.3989873315714 615.3010091518579
z" fill="none" stroke="none"></path>
<use xlink:href="#path-y9xzx2sjwcl-1" x="0" y="0" stroke="#ddeeff">
  <animateMotion begin="-1.794494623587644s" dur="13.955349275903826s" keyPoints="0;1" keyTimes="0;1" repeatCount="indefinite" calcMode="linear">
    <mpath xlink:href="#path8"></mpath>
  </animateMotion>
</use><path id="path9" d="M 990.5528588756107 363.7957931009869
c 0 23.450071334045102 -5.737783411521674 6.735658787438487 -12.47344219896016 6.735658787438487
S 965.6059744776904 387.245864435032 965.6059744776904 363.7957931009869
s 5.737783411521674 -6.735658787438487 12.47344219896016 -6.735658787438487
S 990.5528588756107 340.3457217669418 990.5528588756107 363.7957931009869
z" fill="none" stroke="none"></path>
<use xlink:href="#path-y9xzx2sjwcl-1" x="0" y="0" stroke="#aabbcc">
  <animateMotion begin="-4.356986958857406s" dur="17.718816247275576s" keyPoints="1;0" keyTimes="0;1" repeatCount="indefinite" calcMode="linear">
    <mpath xlink:href="#path9"></mpath>
  </animateMotion>
</use><path id="path10" d="M 1158.0749755154327 128.15306795911954
c 0 55.953192458459085 -13.69067475047403 16.07166166359995 -29.762336414073978 16.07166166359995
S 1098.5503026872846 184.10626041757862 1098.5503026872846 128.15306795911954
s 13.69067475047403 -16.07166166359995 29.762336414073978 -16.07166166359995
S 1158.0749755154327 72.19987550066045 1158.0749755154327 128.15306795911954
z" fill="none" stroke="none"></path>
<use xlink:href="#path-y9xzx2sjwcl-1" x="0" y="0" stroke="#aabbcc">
  <animateMotion begin="-4.864087058482226s" dur="10.32159330038058s" keyPoints="1;0" keyTimes="0;1" repeatCount="indefinite" calcMode="linear">
    <mpath xlink:href="#path10"></mpath>
  </animateMotion>
</use><path id="path11" d="M 1229.2778340333582 831.2821537878721
c 0 28.41027691535455 -6.951450734608027 8.160398688452903 -15.11184942306093 8.160398688452903
S 1199.0541351872364 859.6924307032266 1199.0541351872364 831.2821537878721
s 6.951450734608027 -8.160398688452903 15.11184942306093 -8.160398688452903
S 1229.2778340333582 802.8718768725175 1229.2778340333582 831.2821537878721
z" fill="none" stroke="none"></path>
<use xlink:href="#path-y9xzx2sjwcl-1" x="0" y="0" stroke="#ddeeff">
  <animateMotion begin="-1.9877397730080104s" dur="12.910625434592976s" keyPoints="0;1" keyTimes="0;1" repeatCount="indefinite" calcMode="linear">
    <mpath xlink:href="#path11"></mpath>
  </animateMotion>
</use><path id="path12" d="M 1310.2650408107816 554.0474519641531
c 0 37.51601526223615 -9.179450542887567 10.77587672425932 -19.955327267146888 10.77587672425932
S 1270.3543862764877 591.5634672263892 1270.3543862764877 554.0474519641531
s 9.179450542887567 -10.77587672425932 19.955327267146888 -10.77587672425932
S 1310.2650408107816 516.531436701917 1310.2650408107816 554.0474519641531
z" fill="none" stroke="none"></path>
<use xlink:href="#path-y9xzx2sjwcl-3" x="0" y="0" stroke="#bbddff">
  <animateMotion begin="-2.682175423358197s" dur="13.4628853311646s" keyPoints="1;0" keyTimes="0;1" repeatCount="indefinite" calcMode="linear">
    <mpath xlink:href="#path12"></mpath>
  </animateMotion>
</use><path id="path13" d="M 1433.626028321711 120.08394204483177
c 0 55.417002436830956 -13.559479319650126 15.91764963611102 -29.477128955761145 15.91764963611102
S 1374.6717704101886 175.5009444816627 1374.6717704101886 120.08394204483177
s 13.559479319650126 -15.91764963611102 29.477128955761145 -15.91764963611102
S 1433.626028321711 64.66693960800082 1433.626028321711 120.08394204483177
z" fill="none" stroke="none"></path>
<use xlink:href="#path-y9xzx2sjwcl-1" x="0" y="0" stroke="#aabbcc">
  <animateMotion begin="-2.6473585998161333s" dur="13.030964240315598s" keyPoints="1;0" keyTimes="0;1" repeatCount="indefinite" calcMode="linear">
    <mpath xlink:href="#path13"></mpath>
  </animateMotion>
</use><path id="path14" d="M 1598.4396497887694 317.49332412844257
c 0 47.931719582110965 -11.727973940303745 13.767621582095703 -25.495595522399448 13.767621582095703
S 1547.4484587439704 365.42504371055355 1547.4484587439704 317.49332412844257
s 11.727973940303745 -13.767621582095703 25.495595522399448 -13.767621582095703
S 1598.4396497887694 269.5616045463316 1598.4396497887694 317.49332412844257
z" fill="none" stroke="none"></path>
<use xlink:href="#path-y9xzx2sjwcl-3" x="0" y="0" stroke="#aabbcc">
  <animateMotion begin="-4.052151288359554s" dur="17.598266485777273s" keyPoints="0;1" keyTimes="0;1" repeatCount="indefinite" calcMode="linear">
    <mpath xlink:href="#path14"></mpath>
  </animateMotion>
</use><path id="path15" d="M 1683.2669060766345 870.0261477453781
c 0 60.54491980044444 -14.814182504364064 17.390562070340426 -32.20474457470449 17.390562070340426
S 1618.8574169272254 930.5710675458225 1618.8574169272254 870.0261477453781
s 14.814182504364064 -17.390562070340426 32.20474457470449 -17.390562070340426
S 1683.2669060766345 809.4812279449337 1683.2669060766345 870.0261477453781
z" fill="none" stroke="none"></path>
<use xlink:href="#path-y9xzx2sjwcl-2" x="0" y="0" stroke="#aabbcc">
  <animateMotion begin="-0.4889734231869175s" dur="16.20189208285996s" keyPoints="1;0" keyTimes="0;1" repeatCount="indefinite" calcMode="linear">
    <mpath xlink:href="#path15"></mpath>
  </animateMotion>
</use><path id="path16" d="M 1738.2545350925839 884.2079530546805
c 0 57.546527888384254 -14.080533419498273 16.529321840280584 -30.609855259778858 16.529321840280584
S 1677.034824573026 941.7544809430648 1677.034824573026 884.2079530546805
s 14.080533419498273 -16.529321840280584 30.609855259778858 -16.529321840280584
S 1738.2545350925839 826.6614251662962 1738.2545350925839 884.2079530546805
z" fill="none" stroke="none"></path>
<use xlink:href="#path-y9xzx2sjwcl-2" x="0" y="0" stroke="#ddeeff">
  <animateMotion begin="-2.116863036453517s" dur="12.521180235923277s" keyPoints="1;0" keyTimes="0;1" repeatCount="indefinite" calcMode="linear">
    <mpath xlink:href="#path16"></mpath>
  </animateMotion>
</use><path id="path17" d="M 1864.258348779183 851.4139709615713
c 0 31.5042262971271 -7.708480902488545 9.04908627683438 -16.757567179322926 9.04908627683438
S 1830.7432144205372 882.9181972586983 1830.7432144205372 851.4139709615713
s 7.708480902488545 -9.04908627683438 16.757567179322926 -9.04908627683438
S 1864.258348779183 819.9097446644442 1864.258348779183 851.4139709615713
z" fill="none" stroke="none"></path>
<use xlink:href="#path-y9xzx2sjwcl-3" x="0" y="0" stroke="#ddeeff">
  <animateMotion begin="-2.3955967620654923s" dur="11.183145722065301s" keyPoints="1;0" keyTimes="0;1" repeatCount="indefinite" calcMode="linear">
    <mpath xlink:href="#path17"></mpath>
  </animateMotion>
</use></g>
</svg>