<?xml version="1.0" encoding="UTF-8"?>
<!DOCTYPE svg PUBLIC "-//W3C//DTD SVG 1.1//EN" "http://www.w3.org/Graphics/SVG/1.1/DTD/svg11.dtd">
<!-- Creator: CorelDRAW 2020 (64 Bit) -->
<svg xmlns="http://www.w3.org/2000/svg" xml:space="preserve" width="119.414mm" height="48.7497mm" version="1.1" style="shape-rendering:geometricPrecision; text-rendering:geometricPrecision; image-rendering:optimizeQuality; fill-rule:evenodd; clip-rule:evenodd"
viewBox="0 0 305.97 124.91"
 xmlns:xlink="http://www.w3.org/1999/xlink"
 xmlns:xodm="http://www.corel.com/coreldraw/odm/2003">
 <defs>
  <style type="text/css">
   <![CDATA[
    .fil0 {fill:none}
    .fil2 {fill:#FF725E;fill-rule:nonzero}
    .fil1 {fill:white;fill-rule:nonzero}
   ]]>
  </style>
 </defs>
 <g id="Camada_x0020_1">
  <metadata id="CorelCorpID_0Corel-Layer"/>
  <g id="_3022199636560">
   <polygon class="fil0" points="-0,124.91 305.97,124.91 305.97,0 -0,0 "/>
   <g>
    <path class="fil1" d="M34.39 39.07l0 23.52c0,8.75 -4.6,12.82 -10.96,12.82 -6.1,0 -9.64,-3.54 -9.64,-11.49l0 -24.84 -13.79 0 0 26.88c0,14.68 8.4,21.4 20.33,21.4 5.84,0 11.14,-2.21 14.77,-6.37l0 5.66 13.09 0 0 -47.57 -13.79 0zm46.26 -0.71c-6.37,0 -11.49,2.03 -14.94,6.19l0 -5.48 -13.17 0 0 64.72 13.79 0 0 -22.19c3.54,3.89 8.4,5.75 14.32,5.75 13.35,0 23.69,-9.55 23.69,-24.49 0,-14.94 -10.34,-24.49 -23.69,-24.49zm-2.39 37.66c-6.9,0 -12.11,-4.95 -12.11,-13.17 0,-8.22 5.22,-13.17 12.11,-13.17 6.9,0 12.11,4.95 12.11,13.17 0,8.22 -5.22,13.17 -12.11,13.17zm65.55 11.05c7.87,0 14.5,-3.18 18.21,-9.19l-4.69 -3.18c-3.18,4.69 -8.13,6.81 -13.53,6.81 -10.17,0 -17.59,-7.16 -17.59,-18.12 0,-10.87 7.43,-18.12 17.59,-18.12 5.39,0 10.34,2.21 13.53,6.9l4.69 -3.18c-3.71,-6.1 -10.34,-9.2 -18.21,-9.2 -13.88,0 -23.96,9.73 -23.96,23.61 0,13.88 10.08,23.69 23.96,23.69zm40.88 0c13.62,0 23.61,-9.9 23.61,-23.69 0,-13.79 -9.99,-23.61 -23.61,-23.61 -13.62,0 -23.69,9.81 -23.69,23.61 0,13.79 10.08,23.69 23.69,23.69zm0 -5.57c-9.9,0 -17.33,-7.25 -17.33,-18.12 0,-10.87 7.43,-18.12 17.33,-18.12 9.9,0 17.24,7.25 17.24,18.12 0,10.87 -7.34,18.12 -17.24,18.12zm64.75 -60.47l0 27.94c-3.89,-6.01 -10.26,-9.2 -17.68,-9.2 -13.26,0 -23.16,9.55 -23.16,23.61 0,14.06 9.9,23.69 23.16,23.69 7.69,0 14.15,-3.36 17.95,-9.64l0 9.2 6.01 0 0 -65.6 -6.28 0zm-17.15 60.47c-9.9,0 -17.33,-7.25 -17.33,-18.12 0,-10.87 7.43,-18.12 17.33,-18.12 9.81,0 17.24,7.25 17.24,18.12 0,10.87 -7.43,18.12 -17.24,18.12zm73.68 -18.12c0,-13.97 -9.46,-23.61 -22.55,-23.61 -13.09,0 -22.72,9.81 -22.72,23.61 0,13.79 9.9,23.69 24.4,23.69 7.34,0 13.79,-2.65 17.95,-7.6l-3.54 -4.07c-3.54,4.07 -8.58,6.1 -14.23,6.1 -10.17,0 -17.59,-6.45 -18.3,-16.18l38.9 0c0,-0.71 0.09,-1.41 0.09,-1.95zm-22.55 -18.21c9.11,0 15.74,6.37 16.53,15.47l-32.98 0c0.8,-9.11 7.43,-15.47 16.45,-15.47z"/>
    <path class="fil2" d="M106.05 65.16l10.96 0 2.74 -40.41 -16.44 0 2.74 40.41zm5.48 22.19c4.95,0 8.49,-3.62 8.49,-8.05 0,-4.51 -3.54,-7.87 -8.49,-7.87 -4.95,0 -8.49,3.36 -8.49,7.87 0,4.42 3.54,8.05 8.49,8.05z"/>
   </g>
  </g>
 </g>
</svg>
