<?xml version="1.0" encoding="UTF-8"?>
<!DOCTYPE svg PUBLIC "-//W3C//DTD SVG 1.1//EN" "http://www.w3.org/Graphics/SVG/1.1/DTD/svg11.dtd">
<!-- Creator: CorelDRAW 2018 (64-Bit Evaluation Version) -->
<svg xmlns="http://www.w3.org/2000/svg" xml:space="preserve" width="100mm" height="8.6353mm" version="1.1" style="shape-rendering:geometricPrecision; text-rendering:geometricPrecision; image-rendering:optimizeQuality; fill-rule:evenodd; clip-rule:evenodd"
viewBox="0 0 662.4 57.2"
 xmlns:xlink="http://www.w3.org/1999/xlink">
 <defs>
  <style type="text/css">
   <![CDATA[
    .fil1 {fill:#A239CA;fill-rule:nonzero}
    .fil0 {fill:#E7DFDD;fill-rule:nonzero}
   ]]>
  </style>
 </defs>
 <g id="Layer_x0020_1">
  <metadata id="CorelCorpID_0Corel-Layer"/>
  <g id="_2198883884992">
   <polygon class="fil0" points="38.24,0 15.2,27.79 38.24,57.12 23.03,57.12 -0,27.95 23.03,0 "/>
   <polygon class="fil0" points="91.57,44.22 106.85,44.22 106.85,57.12 78.67,57.12 78.67,0 91.57,0 "/>
   <polygon class="fil0" points="164.4,12.9 142.29,12.9 142.29,22.11 158.57,22.11 158.57,35.01 142.29,35.01 142.29,44.22 164.4,44.22 164.4,57.12 129.39,57.12 129.39,0 164.4,0 "/>
   <path class="fil0" d="M230.02 34.4c0,2.76 -0.42,5.57 -1.27,8.41 -0.84,2.84 -2.29,5.34 -4.34,7.49 -2.1,2.25 -4.49,3.97 -7.18,5.14 -2.69,1.18 -5.54,1.77 -8.56,1.77l-0.08 0c-2.97,0 -5.8,-0.59 -8.48,-1.77 -2.69,-1.18 -5.11,-2.87 -7.26,-5.07 -2,-2.15 -3.42,-4.58 -4.26,-7.29 -0.84,-2.71 -1.29,-5.6 -1.34,-8.68l0 -13.36c0,-2.46 0.49,-4.95 1.46,-7.49 0.97,-2.53 2.35,-4.77 4.15,-6.72 2.15,-2.2 4.56,-3.89 7.22,-5.07 2.66,-1.18 5.5,-1.77 8.52,-1.77l0.08 0c3.02,0 5.87,0.59 8.56,1.77 2.69,1.18 5.08,2.87 7.18,5.07 1.84,1.94 3.22,4.15 4.15,6.6 0.92,2.46 1.41,4.99 1.46,7.6l0 13.36z"/>
   <polygon class="fil0" points="280.05,0 293.72,0 293.72,57.12 280.67,57.12 265.31,29.02 265.31,57.12 251.65,57.12 251.65,0 264.78,0 280.05,28.02 "/>
   <polygon class="fil0" points="349.36,57.12 344.21,42.07 333.08,42.07 328.01,57.12 313.35,57.12 330.09,0 347.29,0 364.02,57.12 "/>
   <path class="fil0" d="M405.23 57.12l-7.68 -18.58 -0.15 0 0 18.58 -12.9 0 0 -57.12 17.35 0 0.08 0c3.28,0 6,0.5 8.18,1.5 2.18,1 3.92,2.33 5.22,3.99 1.3,1.66 2.24,3.61 2.8,5.84 0.56,2.23 0.84,4.57 0.84,7.03 0,2.56 -0.42,4.84 -1.27,6.83 -0.84,2 -1.84,3.67 -2.99,5.03 -1.15,1.36 -2.32,2.38 -3.49,3.07 -1.18,0.69 -2.1,1.04 -2.76,1.04l11.59 22.8 -14.82 0z"/>
   <path class="fil0" d="M480.67 28.56c0,3.84 -0.44,7.49 -1.3,10.94 -0.87,3.46 -2.3,6.49 -4.3,9.1 -2,2.61 -4.61,4.68 -7.83,6.22 -3.22,1.54 -7.17,2.3 -11.82,2.3l-1.69 0 -11.52 0 0 -57.12 11.52 0c4.45,0 8.37,0.73 11.75,2.19 3.38,1.46 6.19,3.46 8.45,5.99 2.25,2.53 3.94,5.55 5.07,9.06 1.13,3.51 1.69,7.28 1.69,11.32z"/>
   <path class="fil0" d="M545.21 34.4c0,2.76 -0.42,5.57 -1.27,8.41 -0.84,2.84 -2.29,5.34 -4.34,7.49 -2.1,2.25 -4.49,3.97 -7.18,5.14 -2.69,1.18 -5.54,1.77 -8.56,1.77l-0.08 0c-2.97,0 -5.8,-0.59 -8.48,-1.77 -2.69,-1.18 -5.11,-2.87 -7.26,-5.07 -2,-2.15 -3.42,-4.58 -4.26,-7.29 -0.84,-2.71 -1.29,-5.6 -1.34,-8.68l0 -13.36c0,-2.46 0.49,-4.95 1.46,-7.49 0.97,-2.53 2.35,-4.77 4.15,-6.72 2.15,-2.2 4.56,-3.89 7.22,-5.07 2.66,-1.18 5.5,-1.77 8.52,-1.77l0.08 0c3.02,0 5.87,0.59 8.56,1.77 2.69,1.18 5.08,2.87 7.18,5.07 1.84,1.94 3.22,4.15 4.15,6.6 0.92,2.46 1.41,4.99 1.46,7.6l0 13.36z"/>
   <polygon class="fil1" points="613.06,0 595.4,57.12 582.5,57.12 600.16,0 "/>
   <polygon class="fil0" points="624.16,57.12 647.2,29.33 624.16,0 639.37,0 662.4,29.18 639.37,57.12 "/>
  </g>
 </g>
</svg>
