<?xml version="1.0" encoding="UTF-8"?>
<!DOCTYPE svg PUBLIC "-//W3C//DTD SVG 1.1//EN" "http://www.w3.org/Graphics/SVG/1.1/DTD/svg11.dtd">
<!-- Creator: CorelDRAW 2020 (64 Bit) -->
<svg xmlns="http://www.w3.org/2000/svg" xml:space="preserve" width="24.5193mm" height="10.0163mm" version="1.1" style="shape-rendering:geometricPrecision; text-rendering:geometricPrecision; image-rendering:optimizeQuality; fill-rule:evenodd; clip-rule:evenodd"
viewBox="0 0 78.59 32.1"
 xmlns:xlink="http://www.w3.org/1999/xlink"
 xmlns:xodm="http://www.corel.com/coreldraw/odm/2003">
 <defs>
  <style type="text/css">
   <![CDATA[
    .fil0 {fill:#FF6600}
    .fil1 {fill:white}
   ]]>
  </style>
 </defs>
 <g id="Camada_x0020_1">
  <metadata id="CorelCorpID_0Corel-Layer"/>
  <path class="fil0" d="M59.62 5.53l11.38 0c4.18,0 7.6,3.42 7.6,7.6l0 11.38c0,4.18 -3.42,7.6 -7.6,7.6l-11.38 0c-4.18,0 -7.6,-3.42 -7.6,-7.6l0 -11.38c0,-4.18 3.42,-7.6 7.6,-7.6zm1.6 5.94l8.19 0c1.79,0 3.26,1.47 3.26,3.26l0 8.19c0,1.79 -1.47,3.26 -3.26,3.26l-8.19 0c-1.79,0 -3.26,-1.47 -3.26,-3.26l0 -8.19c0,-1.79 1.47,-3.26 3.26,-3.26z"/>
  <path class="fil1" d="M26.7 26.17l21.23 0c0.38,0 0.69,0.37 0.69,0.81l0 4.31c0,0.45 -0.31,0.81 -0.69,0.81l-21.23 0c-0.38,0 -0.69,-0.37 -0.69,-0.81l0 -4.31c0,-0.45 0.31,-0.81 0.69,-0.81zm0 -20.63l21.23 0c0.38,0 0.69,0.37 0.69,0.81l0 4.31c0,0.45 -0.31,0.81 -0.69,0.81l-21.23 0c-0.38,0 -0.69,-0.37 -0.69,-0.81l0 -4.31c0,-0.45 0.31,-0.81 0.69,-0.81zm0 10.32l21.23 0c0.38,0 0.69,0.37 0.69,0.81l0 4.31c0,0.45 -0.31,0.81 -0.69,0.81l-21.23 0c-0.38,0 -0.69,-0.37 -0.69,-0.81l0 -4.31c0,-0.45 0.31,-0.81 0.69,-0.81z"/>
  <path class="fil1" d="M6.75 26.17l15.05 0c0.45,0 0.81,0.37 0.81,0.81l0 4.31c0,0.45 -0.37,0.81 -0.81,0.81l-20.99 0c-0.45,0 -0.81,-0.37 -0.81,-0.81l0 -24.95c0,-0.45 0.37,-0.81 0.81,-0.81l4.31 0c0.45,0 0.81,0.37 0.81,0.81l0 19.01c0,0.45 0.37,0.81 0.81,0.81z"/>
  <path class="fil0" d="M29.74 3.99l13.37 -3.96c0.31,-0.09 0.65,0.13 0.75,0.49l1.03 3.47 -15.16 0z"/>
 </g>
</svg>
