<?xml version="1.0" encoding="UTF-8"?>
<!DOCTYPE svg PUBLIC "-//W3C//DTD SVG 1.1//EN" "http://www.w3.org/Graphics/SVG/1.1/DTD/svg11.dtd">
<!-- Creator: CorelDRAW 2020 (64 Bit) -->
<svg xmlns="http://www.w3.org/2000/svg" xml:space="preserve" width="119.414mm" height="48.7496mm" version="1.1" style="shape-rendering:geometricPrecision; text-rendering:geometricPrecision; image-rendering:optimizeQuality; fill-rule:evenodd; clip-rule:evenodd"
viewBox="0 0 565.07 230.69"
 xmlns:xlink="http://www.w3.org/1999/xlink"
 xmlns:xodm="http://www.corel.com/coreldraw/odm/2003">
 <defs>
  <style type="text/css">
   <![CDATA[
    .fil0 {fill:none}
    .fil2 {fill:#5b1fa6;fill-rule:nonzero}
    .fil1 {fill:white;fill-rule:nonzero}
   ]]>
  </style>
 </defs>
 <g id="Camada_x0020_1">
  <metadata id="CorelCorpID_0Corel-Layer"/>
  <g id="_3022199636560">
   <polygon class="fil0" points="-0,230.69 565.07,230.69 565.07,0 -0,0 "/>
   <g>
    <path class="fil1" d="M63.51 72.15l0 43.44c0,16.16 -8.5,23.68 -20.24,23.68 -11.27,0 -17.8,-6.54 -17.8,-21.22l0 -45.87 -25.47 0 0 49.64c0,27.11 15.51,39.52 37.55,39.52 10.79,0 20.57,-4.08 27.28,-11.76l0 10.45 24.17 0 0 -87.85 -25.47 0 -0.02 -0.02zm85.43 -1.31c-11.76,0 -21.22,3.75 -27.59,11.43l0 -10.12 -24.32 0 0 119.53 25.47 0 0 -40.98c6.54,7.18 15.51,10.62 26.45,10.62 24.65,0 43.75,-17.64 43.75,-45.23 0,-27.59 -19.1,-45.23 -43.75,-45.23l0 -0.02zm-4.41 69.55c-12.74,0 -22.37,-9.14 -22.37,-24.32 0,-15.18 9.64,-24.32 22.37,-24.32 12.74,0 22.37,9.14 22.37,24.32 0,15.18 -9.64,24.32 -22.37,24.32zm121.06 20.41c14.53,0 26.78,-5.87 33.63,-16.97l-8.66 -5.87c-5.87,8.66 -15.01,12.58 -24.99,12.58 -18.78,0 -32.49,-13.22 -32.49,-33.46 0,-20.07 13.72,-33.46 32.49,-33.46 9.95,0 19.1,4.08 24.99,12.74l8.66 -5.87c-6.85,-11.27 -19.1,-16.99 -33.63,-16.99 -25.63,0 -44.25,17.97 -44.25,43.6 0,25.63 18.62,43.75 44.25,43.75l0 -0.04zm75.5 0c25.15,0 43.6,-18.28 43.6,-43.75 0,-25.47 -18.45,-43.6 -43.6,-43.6 -25.15,0 -43.75,18.12 -43.75,43.6 0,25.47 18.62,43.75 43.75,43.75zm0 -10.29c-18.28,0 -32.01,-13.39 -32.01,-33.46 0,-20.07 13.72,-33.46 32.01,-33.46 18.28,0 31.84,13.39 31.84,33.46 0,20.07 -13.56,33.46 -31.84,33.46zm119.58 -111.68l0 51.6c-7.18,-11.1 -18.95,-16.99 -32.65,-16.99 -24.49,0 -42.77,17.64 -42.77,43.6 0,25.97 18.28,43.75 42.77,43.75 14.2,0 26.13,-6.21 33.15,-17.8l0 16.99 11.1 0 0 -121.15 -11.6 0 -0 0zm-31.67 111.68c-18.28,0 -32.01,-13.39 -32.01,-33.46 0,-20.07 13.72,-33.46 32.01,-33.46 18.12,0 31.84,13.39 31.84,33.46 0,20.07 -13.72,33.46 -31.84,33.46zm136.07 -33.46c0,-25.8 -17.47,-43.6 -41.65,-43.6 -24.17,0 -41.96,18.12 -41.96,43.6 0,25.47 18.28,43.75 45.06,43.75 13.56,0 25.47,-4.89 33.15,-14.04l-6.54 -7.52c-6.54,7.52 -15.85,11.27 -26.28,11.27 -18.78,0 -32.49,-11.91 -33.8,-29.88l71.84 0c0,-1.31 0.17,-2.6 0.17,-3.6l0 0.02zm-41.65 -33.63c16.82,0 29.07,11.76 30.53,28.57l-60.91 0c1.48,-16.82 13.72,-28.57 30.38,-28.57z"/>
    <path class="fil2" d="M195.86 120.34l20.24 0 5.06 -74.63 -30.36 0 5.06 74.63 -0 0zm10.12 40.98c9.14,0 15.68,-6.69 15.68,-14.87 0,-8.33 -6.54,-14.53 -15.68,-14.53 -9.14,0 -15.68,6.21 -15.68,14.53 0,8.16 6.54,14.87 15.68,14.87z"/>
   </g>
  </g>
 </g>
</svg>
