<?xml version="1.0" encoding="UTF-8"?>
<!DOCTYPE svg PUBLIC "-//W3C//DTD SVG 1.1//EN" "http://www.w3.org/Graphics/SVG/1.1/DTD/svg11.dtd">
<!-- Creator: CorelDRAW 2018 (64-Bit Evaluation Version) -->
<svg xmlns="http://www.w3.org/2000/svg" xml:space="preserve" width="50mm" height="20.7388mm" version="1.1" style="shape-rendering:geometricPrecision; text-rendering:geometricPrecision; image-rendering:optimizeQuality; fill-rule:evenodd; clip-rule:evenodd"
viewBox="0 0 59.4 24.64"
 xmlns:xlink="http://www.w3.org/1999/xlink">
 <defs>
  <style type="text/css">
   <![CDATA[
    .fil0 {fill:#848688}
   ]]>
  </style>
 </defs>
 <g id="Layer_x0020_1">
  <metadata id="CorelCorpID_0Corel-Layer"/>
  <g id="logo.svg">
   <path class="fil0" d="M1.84 0l13.81 0c1.01,0 1.84,0.83 1.84,1.84l0 20.96c0,1.01 -0.83,1.84 -1.84,1.84l-13.81 0c-1.01,0 -1.84,-0.83 -1.84,-1.84l0 -20.96c0,-1.01 0.83,-1.84 1.84,-1.84l0 0zm4.08 10.22l-2.41 0 0 7.32 2.41 0 0 -7.32zm-1.21 -0.7c0.42,0 0.75,-0.11 0.99,-0.36 0.24,-0.24 0.36,-0.55 0.36,-0.95 0,-0.4 -0.11,-0.71 -0.36,-0.94 -0.24,-0.23 -0.57,-0.34 -0.99,-0.34 -0.42,0 -0.77,0.11 -1.01,0.34 -0.24,0.23 -0.37,0.54 -0.37,0.94 0,0.4 0.11,0.71 0.36,0.95 0.24,0.24 0.57,0.36 0.99,0.36l0.03 0 -0 0zm9.41 7.62l0 -9.9 -2.41 0.11 0 2.73c-0.21,-0.03 -0.42,-0.04 -0.64,-0.04 -1.16,0 -2.12,0.37 -2.84,1.1 -0.72,0.73 -1.09,1.68 -1.09,2.86 0,1.12 0.36,2.02 1.07,2.69 0.71,0.67 1.69,1.01 2.95,1.01 1.09,0 2.09,-0.18 2.99,-0.57l-0.03 0.01 -0 -0 0 0zm-4.51 -3.27c0,-1.24 0.54,-1.85 1.62,-1.85 0.13,0 0.3,0.03 0.51,0.07l0 3.51c-0.16,0.07 -0.36,0.1 -0.6,0.1 -1.02,0 -1.53,-0.61 -1.53,-1.84z"/>
   <path class="fil0" d="M29.02 12.26c0,-1.29 -0.39,-2.31 -1.17,-3.04 -0.78,-0.73 -1.82,-1.09 -3.13,-1.09 -1.2,0 -2.33,0.22 -3.41,0.64l0 10.49 2.65 0 0 -2.88c0.26,0.08 0.62,0.12 1.07,0.12 1.18,0 2.13,-0.39 2.86,-1.17 0.73,-0.78 1.09,-1.81 1.09,-3.08l0.03 0.02 0 -0 -0 0zm-5.06 1.96l0 -3.85c0.28,-0.05 0.48,-0.08 0.59,-0.08 1.17,0 1.74,0.67 1.74,2.03 0,0.69 -0.14,1.2 -0.4,1.53 -0.26,0.33 -0.68,0.5 -1.26,0.5 -0.23,0 -0.45,-0.03 -0.67,-0.11l0 -0.02 -0 -0 0 0zm6.38 -5.45l0 7.57 2.65 0 0 -5.89c0.23,-0.09 0.51,-0.14 0.84,-0.14 0.42,0 0.76,0.05 1.04,0.16l0.37 -2.15c-0.37,-0.12 -0.92,-0.19 -1.65,-0.19 -1.26,0 -2.35,0.22 -3.27,0.64l0.02 0 -0 0 0 0zm11.96 5.13c-0.72,0.28 -1.4,0.42 -2.07,0.42 -0.98,0 -1.57,-0.42 -1.77,-1.28l4.59 0c0.05,-0.42 0.06,-0.86 0.06,-1.31 0,-1.07 -0.33,-1.95 -0.98,-2.62 -0.65,-0.67 -1.49,-1 -2.51,-1 -1.17,0 -2.13,0.39 -2.88,1.15 -0.75,0.76 -1.12,1.78 -1.12,3.04 0,1.26 0.39,2.27 1.18,3.04 0.79,0.76 1.82,1.15 3.1,1.15 1.07,0 1.99,-0.17 2.77,-0.53l-0.37 -2.07 0 -0zm-2.71 -3.69c0.28,0 0.51,0.09 0.68,0.3 0.17,0.2 0.26,0.48 0.26,0.84l0 0.12 -2.19 0c0.14,-0.83 0.56,-1.25 1.24,-1.25l0 -0.02 0 0zm8.48 -2.07c-1.26,0 -2.26,0.39 -2.97,1.15 -0.72,0.76 -1.07,1.79 -1.07,3.07 0,1.08 0.26,1.98 0.79,2.7 0.53,0.72 1.28,1.18 2.22,1.39l-0.25 0.73 0.26 0.72c0.51,0 0.76,0.14 0.76,0.44 0,0.26 -0.23,0.4 -0.68,0.4 -0.25,0 -0.48,-0.03 -0.72,-0.09l-0.3 1.39c0.34,0.11 0.75,0.16 1.23,0.16 0.7,0 1.29,-0.14 1.77,-0.44 0.48,-0.3 0.72,-0.75 0.72,-1.36 0,-0.79 -0.51,-1.26 -1.52,-1.4l0.19 -0.44c0.78,-0.03 1.43,-0.17 1.94,-0.42l-0.4 -2.12c-0.56,0.25 -1.1,0.37 -1.65,0.37 -1.12,0 -1.68,-0.7 -1.68,-2.09 0,-0.61 0.14,-1.09 0.42,-1.43 0.28,-0.34 0.67,-0.51 1.17,-0.51 0.53,0 1.09,0.12 1.68,0.37l0.48 -2.07c-0.7,-0.33 -1.49,-0.48 -2.4,-0.48l0 -0.03 -0 0 0 0zm11.33 4.19c0,-1.26 -0.36,-2.27 -1.09,-3.04 -0.73,-0.76 -1.71,-1.14 -2.94,-1.14 -1.23,0 -2.21,0.39 -2.94,1.15 -0.73,0.76 -1.1,1.78 -1.1,3.04 0,1.28 0.36,2.31 1.09,3.07 0.73,0.76 1.71,1.15 2.94,1.15 1.23,0 2.21,-0.37 2.94,-1.14 0.73,-0.76 1.09,-1.78 1.09,-3.06l0.02 -0.05 -0 0zm-5.4 0.05c0,-0.64 0.12,-1.14 0.36,-1.5 0.23,-0.36 0.56,-0.53 0.98,-0.53 0.42,0 0.75,0.17 0.98,0.53 0.23,0.36 0.36,0.86 0.36,1.5 0,0.64 -0.12,1.14 -0.36,1.5 -0.23,0.36 -0.56,0.55 -0.98,0.55 -0.42,0 -0.75,-0.17 -0.98,-0.53 -0.23,-0.36 -0.36,-0.86 -0.36,-1.5l0 -0.02z"/>
  </g>
 </g>
</svg>
