<?xml version="1.0" encoding="UTF-8"?>
<!DOCTYPE svg PUBLIC "-//W3C//DTD SVG 1.1//EN" "http://www.w3.org/Graphics/SVG/1.1/DTD/svg11.dtd">
<!-- Creator: CorelDRAW 2018 (64-Bit Evaluation Version) -->
<svg xmlns="http://www.w3.org/2000/svg" xml:space="preserve" width="74.5764mm" height="20.74mm" version="1.1" style="shape-rendering:geometricPrecision; text-rendering:geometricPrecision; image-rendering:optimizeQuality; fill-rule:evenodd; clip-rule:evenodd"
viewBox="0 0 136.23 37.89"
 xmlns:xlink="http://www.w3.org/1999/xlink">
 <defs>
  <style type="text/css">
   <![CDATA[
    .fil0 {fill:#848688}
    .fil1 {fill:#848688;fill-rule:nonzero}
   ]]>
  </style>
 </defs>
 <g id="Camada_x0020_1">
  <metadata id="CorelCorpID_0Corel-Layer"/>
  <g id="_2443198421936">
   <g>
    <path class="fil0" d="M6.31 5.16l19.98 0c1,0 1.94,0.4 2.58,1.17 0.64,0.78 0.85,1.79 0.67,2.77l-1.79 9.99c-0.67,3.77 -2.8,7.18 -5.71,9.64 -2.88,2.45 -6.56,3.99 -10.37,3.99 -3.52,0 -6.86,-1.35 -9.12,-4.1 -2.27,-2.77 -2.95,-6.35 -2.33,-9.83l1.79 -9.99c0.18,-1.01 0.74,-1.92 1.52,-2.57 0.77,-0.66 1.76,-1.06 2.78,-1.06zm-0.21 2.9c-0.56,0 -1.12,0.5 -1.22,1.04l-1.79 9.99c-1.05,5.87 2.76,10.73 8.79,10.73 6.13,0 11.92,-5.02 12.99,-11.03l1.79 -9.99c0.08,-0.42 -0.15,-0.74 -0.59,-0.74l-19.98 0z"/>
    <path class="fil0" d="M29.95 27.56l-1.2 6.69c-0.18,1.01 -0.74,1.92 -1.52,2.57 -0.77,0.66 -1.76,1.06 -2.78,1.06l-5.91 0c-1,0 -1.94,-0.4 -2.58,-1.17 -0.64,-0.78 -0.85,-1.79 -0.67,-2.77l5.42 -30.3c0.18,-1.01 0.74,-1.92 1.52,-2.57 0.77,-0.66 1.76,-1.06 2.78,-1.06l9.99 0c3.52,0 6.86,1.35 9.12,4.1 2.27,2.77 2.95,6.35 2.33,9.83 -0.67,3.77 -2.8,7.18 -5.71,9.64 -2.88,2.45 -6.56,3.99 -10.37,3.99l-0.43 0zm4.85 -24.66l-9.99 0c-0.56,0 -1.12,0.5 -1.22,1.04l-5.42 30.3c-0.08,0.42 0.15,0.74 0.59,0.74l5.91 0c0.56,0 1.12,-0.5 1.22,-1.04l1.22 -6.82c0.24,-1.36 1.52,-2.47 2.91,-2.47l0.59 0c6.14,0 11.92,-5.02 12.99,-11.03 1.05,-5.87 -2.76,-10.73 -8.79,-10.73z"/>
   </g>
   <g>
    <g>
     <path class="fil1" d="M110.33 9.27c0.01,-0.05 0.03,-0.09 0.06,-0.12 0.03,-0.03 0.06,-0.04 0.1,-0.04 0.33,0.05 0.64,0.1 0.91,0.16 0.27,0.06 0.59,0.13 0.96,0.21l0.25 0.06c0.02,0 0.05,0 0.08,0 0.15,0 0.29,-0.08 0.4,-0.24 0.06,-0.09 0.11,-0.19 0.15,-0.3 0.02,-0.07 0.07,-0.1 0.14,-0.1 0.02,0 0.04,0 0.06,0l1.13 0.24c0.05,0.01 0.08,0.04 0.09,0.09 0.01,0.03 0,0.07 -0,0.1 0.01,0.06 -0.04,0.23 -0.16,0.52 -0.12,0.29 -0.31,0.56 -0.58,0.82 -0.27,0.25 -0.63,0.38 -1.09,0.38 -0.12,0 -0.26,-0.01 -0.42,-0.04l-0.33 -0.06 -0.02 0.09c-0.26,1.37 -1.09,2.06 -2.51,2.06 -0.4,0 -0.8,-0.09 -1.19,-0.28 -0.4,-0.19 -0.73,-0.45 -1.01,-0.77 -0.28,-0.32 -0.45,-0.67 -0.52,-1.05 -0.02,-0.11 -0.03,-0.24 -0.03,-0.38 0.01,-0.39 0.11,-0.72 0.29,-0.99 0.18,-0.28 0.43,-0.5 0.75,-0.67 -0.09,-0.1 -0.18,-0.25 -0.25,-0.43 -0.08,-0.19 -0.13,-0.38 -0.17,-0.58 -0.03,-0.15 -0.04,-0.29 -0.04,-0.43 0.01,-0.35 0.11,-0.66 0.28,-0.93 0.18,-0.27 0.41,-0.48 0.71,-0.63 0.3,-0.15 0.63,-0.22 0.99,-0.22 0.38,0 0.72,0.07 1.01,0.22 0.29,0.15 0.53,0.35 0.71,0.61 0.18,0.26 0.3,0.55 0.36,0.88 0.01,0.05 0.02,0.12 0.03,0.22 0.01,0.1 0,0.18 -0.01,0.24 -0.01,0.06 -0.06,0.09 -0.13,0.09l-1.05 0.01c-0.1,0 -0.15,-0.03 -0.16,-0.09 -0,-0.02 -0,-0.04 -0,-0.06 0,-0.05 -0,-0.11 -0.01,-0.18 -0.02,-0.14 -0.08,-0.25 -0.18,-0.33 -0.09,-0.08 -0.22,-0.12 -0.37,-0.12 -0.19,0 -0.33,0.05 -0.43,0.17 -0.1,0.11 -0.15,0.25 -0.15,0.41 -0,0.06 0,0.12 0.01,0.18 0.03,0.14 0.08,0.26 0.17,0.35 0.09,0.09 0.17,0.15 0.25,0.17 0.14,0.03 0.22,0.08 0.23,0.15 0,0.02 0,0.04 -0,0.05l-0.24 0.99c-0.01,0.05 -0.03,0.08 -0.06,0.1 -0.03,0.02 -0.06,0.03 -0.11,0.03l-0.16 -0c-0.08,0 -0.17,0.03 -0.25,0.1 -0.08,0.07 -0.15,0.16 -0.2,0.28 -0.05,0.12 -0.08,0.24 -0.08,0.37 -0,0.09 0,0.16 0.01,0.22 0.04,0.23 0.15,0.4 0.32,0.53 0.18,0.13 0.37,0.19 0.6,0.19 0.3,0 0.54,-0.07 0.71,-0.21 0.17,-0.14 0.26,-0.36 0.27,-0.64l-0.26 -0.08c-0.04,-0.01 -0.07,-0.03 -0.1,-0.04 -0.02,-0.01 -0.04,-0.04 -0.05,-0.07l0 -0.05 0.27 -1.15z"/>
     <path class="fil1" d="M58.03 11.33c0.24,0 0.47,-0.03 0.68,-0.09l0.04 -1.28c0,-0.14 0.07,-0.21 0.21,-0.21l1.35 0c0.05,0 0.09,0.01 0.13,0.03 0.04,0.02 0.06,0.06 0.07,0.11 0,0.01 0,0.03 0,0.07l-0.08 2.34c-0,0.05 -0.01,0.09 -0.03,0.13 -0.02,0.04 -0.05,0.07 -0.1,0.1 -0.62,0.4 -1.35,0.59 -2.2,0.59 -0.59,0 -1.14,-0.13 -1.65,-0.4 -0.51,-0.27 -0.95,-0.64 -1.3,-1.11 -0.35,-0.47 -0.58,-1.01 -0.69,-1.61 -0.03,-0.19 -0.06,-0.39 -0.06,-0.59 -0.03,-0.71 0.11,-1.34 0.43,-1.9 0.32,-0.56 0.76,-0.99 1.34,-1.31 0.57,-0.31 1.22,-0.47 1.94,-0.47 0.42,0 0.79,0.06 1.13,0.19 0.34,0.13 0.67,0.31 1,0.56 0.05,0.04 0.09,0.08 0.09,0.13 0.01,0.04 -0.01,0.09 -0.04,0.15l-0.74 1.08c-0.04,0.06 -0.1,0.09 -0.16,0.09 -0.05,0 -0.09,-0.02 -0.14,-0.05 -0.15,-0.11 -0.32,-0.2 -0.5,-0.27 -0.18,-0.07 -0.38,-0.1 -0.58,-0.1 -0.37,0 -0.69,0.08 -0.98,0.25 -0.29,0.17 -0.51,0.4 -0.67,0.69 -0.16,0.29 -0.25,0.61 -0.26,0.97 -0,0.17 0.01,0.32 0.03,0.45 0.05,0.28 0.16,0.53 0.31,0.76 0.16,0.22 0.36,0.4 0.6,0.53 0.24,0.13 0.51,0.19 0.8,0.19zm4.48 -5.28c0,-0.06 0.02,-0.11 0.06,-0.15 0.04,-0.04 0.09,-0.06 0.16,-0.06l3.1 0c0.39,0 0.74,0.09 1.07,0.27 0.32,0.18 0.59,0.42 0.79,0.72 0.21,0.3 0.35,0.63 0.41,0.99 0.03,0.15 0.04,0.29 0.04,0.42 0,0.44 -0.11,0.83 -0.34,1.18 -0.23,0.34 -0.53,0.61 -0.9,0.8l1.3 2.58c0.01,0.03 0.02,0.05 0.02,0.05 0.01,0.04 -0,0.08 -0.03,0.11 -0.02,0.03 -0.06,0.05 -0.12,0.05l-1.59 0c-0.07,0 -0.12,-0.01 -0.15,-0.04 -0.03,-0.03 -0.07,-0.08 -0.11,-0.16l-1.07 -2.18 -0.93 0 -0.07 2.17c-0.01,0.14 -0.08,0.21 -0.21,0.21l-1.44 0c-0.12,0 -0.19,-0.05 -0.2,-0.14 -0,-0.01 -0,-0.04 -0,-0.07l0.21 -6.75zm1.77 3.03l1.12 0c0.16,0 0.31,-0.04 0.45,-0.12 0.13,-0.08 0.24,-0.19 0.32,-0.33 0.08,-0.13 0.12,-0.28 0.12,-0.42 0,-0.06 -0,-0.12 -0.01,-0.2 -0.03,-0.19 -0.12,-0.35 -0.26,-0.49 -0.14,-0.13 -0.31,-0.2 -0.51,-0.2l-1.17 0 -0.05 1.75zm9.23 -4.26c-0.04,0.09 -0.08,0.15 -0.12,0.18 -0.04,0.03 -0.1,0.04 -0.18,0.04l-0.97 0c-0.04,0 -0.07,-0.01 -0.1,-0.03 -0.03,-0.02 -0.05,-0.05 -0.06,-0.09 -0.01,-0.03 -0,-0.07 0.01,-0.12l0.41 -1.07c0.03,-0.08 0.07,-0.14 0.11,-0.17 0.04,-0.03 0.11,-0.05 0.19,-0.05l1.1 0c0.04,0 0.07,0.01 0.1,0.04 0.03,0.03 0.04,0.06 0.05,0.09 0.01,0.05 0,0.09 -0.02,0.13l-0.51 1.05zm-1.74 1.23c0.06,-0.14 0.16,-0.22 0.31,-0.22l1.18 0c0.14,0 0.23,0.07 0.28,0.22l2.42 6.75c0.01,0.01 0.01,0.03 0.01,0.05 0.02,0.1 -0.03,0.16 -0.15,0.16l-1.39 0c-0.15,0 -0.24,-0.07 -0.28,-0.21l-0.31 -0.95 -2.64 0 -0.36 0.95c-0.05,0.14 -0.15,0.21 -0.3,0.21l-1.49 0c-0.09,0 -0.15,-0.03 -0.16,-0.09 -0.01,-0.03 0,-0.07 0.02,-0.12l2.84 -6.75zm1.57 4.25l-0.71 -2.19 -0.83 2.19 1.54 0zm4.32 -4.25c0,-0.14 0.08,-0.22 0.22,-0.22l4.6 0c0.11,0 0.18,0.05 0.2,0.15 0,0.01 0,0.04 0,0.07l-0.04 1.24c-0.01,0.14 -0.08,0.21 -0.22,0.21l-2.94 0 -0.05 1.49 2.16 0c0.12,0 0.19,0.05 0.2,0.15 0,0.01 0,0.04 0,0.07l-0.03 1.17c-0.01,0.14 -0.08,0.21 -0.22,0.21l-2.16 0 -0.07 2.21c-0.01,0.14 -0.08,0.21 -0.21,0.21l-1.44 0c-0.12,0 -0.19,-0.05 -0.21,-0.15 -0,-0.01 -0,-0.03 -0,-0.06l0.22 -6.75zm6.71 0c0,-0.14 0.08,-0.22 0.22,-0.22l1.44 0c0.11,0 0.18,0.05 0.2,0.15 0,0.01 0,0.04 0,0.07l-0.22 6.75c-0.01,0.14 -0.08,0.21 -0.21,0.21l-1.44 0c-0.12,0 -0.19,-0.05 -0.21,-0.15 -0,-0.01 -0,-0.03 -0,-0.06l0.21 -6.75zm8.18 4.94c0.09,-0.06 0.15,-0.09 0.2,-0.09 0.06,0 0.1,0.03 0.14,0.09l0.75 1.16c0.03,0.04 0.05,0.08 0.06,0.12 0.01,0.03 -0,0.06 -0.02,0.09 -0.02,0.03 -0.06,0.06 -0.11,0.1 -0.3,0.2 -0.61,0.37 -0.92,0.48 -0.32,0.12 -0.68,0.17 -1.08,0.17 -0.58,0 -1.13,-0.14 -1.65,-0.4 -0.51,-0.27 -0.95,-0.64 -1.3,-1.12 -0.35,-0.47 -0.58,-1.01 -0.68,-1.61 -0.03,-0.19 -0.05,-0.38 -0.06,-0.58 -0.03,-0.7 0.12,-1.34 0.44,-1.9 0.32,-0.56 0.77,-1 1.35,-1.31 0.58,-0.32 1.22,-0.47 1.94,-0.47 0.41,0 0.79,0.07 1.14,0.21 0.35,0.14 0.66,0.32 0.94,0.54 0.05,0.03 0.07,0.07 0.08,0.13 0.01,0.04 -0,0.09 -0.03,0.13l-0.78 1.13c-0.03,0.05 -0.08,0.07 -0.13,0.07 -0.05,0 -0.11,-0.02 -0.16,-0.07 -0.15,-0.13 -0.31,-0.22 -0.47,-0.28 -0.16,-0.06 -0.34,-0.09 -0.55,-0.09 -0.35,0 -0.67,0.09 -0.96,0.25 -0.29,0.17 -0.52,0.4 -0.69,0.69 -0.17,0.29 -0.26,0.61 -0.28,0.96 -0,0.15 0.01,0.3 0.03,0.44 0.05,0.28 0.16,0.54 0.32,0.77 0.16,0.23 0.37,0.4 0.62,0.53 0.25,0.13 0.53,0.19 0.83,0.19 0.33,0 0.67,-0.12 1.02,-0.35zm5 -4.94c0.06,-0.14 0.16,-0.22 0.31,-0.22l1.18 0c0.14,0 0.23,0.07 0.28,0.22l2.42 6.75c0.01,0.01 0.01,0.03 0.01,0.05 0.02,0.1 -0.03,0.16 -0.15,0.16l-1.39 0c-0.14,0 -0.24,-0.07 -0.28,-0.21l-0.31 -0.95 -2.64 0 -0.36 0.95c-0.05,0.14 -0.15,0.21 -0.3,0.21l-1.49 0c-0.09,0 -0.15,-0.03 -0.16,-0.09 -0.01,-0.03 0,-0.07 0.02,-0.12l2.84 -6.75zm1.57 4.25l-0.71 -2.19 -0.83 2.19 1.54 0z"/>
    </g>
    <path class="fil1" d="M59.09 21.62c0.09,-0.06 0.15,-0.09 0.2,-0.09 0.06,0 0.1,0.03 0.14,0.09l0.75 1.16c0.03,0.04 0.05,0.08 0.06,0.12 0.01,0.03 -0,0.06 -0.02,0.09 -0.02,0.03 -0.06,0.06 -0.11,0.1 -0.3,0.2 -0.61,0.37 -0.92,0.48 -0.32,0.12 -0.68,0.17 -1.08,0.17 -0.58,0 -1.13,-0.14 -1.65,-0.4 -0.51,-0.27 -0.95,-0.64 -1.3,-1.12 -0.35,-0.47 -0.58,-1.01 -0.68,-1.61 -0.03,-0.19 -0.05,-0.38 -0.06,-0.58 -0.03,-0.7 0.12,-1.34 0.44,-1.9 0.32,-0.56 0.77,-1 1.35,-1.31 0.58,-0.32 1.22,-0.47 1.94,-0.47 0.41,0 0.79,0.07 1.14,0.21 0.35,0.14 0.66,0.32 0.94,0.54 0.05,0.03 0.07,0.07 0.08,0.13 0.01,0.04 -0,0.09 -0.03,0.13l-0.78 1.13c-0.04,0.05 -0.08,0.07 -0.13,0.07 -0.05,0 -0.11,-0.02 -0.16,-0.07 -0.15,-0.13 -0.31,-0.22 -0.47,-0.28 -0.16,-0.06 -0.34,-0.09 -0.55,-0.09 -0.35,0 -0.67,0.09 -0.96,0.25 -0.29,0.17 -0.52,0.4 -0.69,0.69 -0.17,0.29 -0.26,0.61 -0.28,0.96 -0,0.15 0.01,0.3 0.03,0.44 0.05,0.28 0.16,0.54 0.32,0.77 0.16,0.23 0.37,0.4 0.62,0.53 0.25,0.13 0.53,0.19 0.83,0.19 0.33,0 0.67,-0.12 1.02,-0.35zm2.05 -1.57c0.01,-0.72 0.18,-1.37 0.52,-1.93 0.34,-0.56 0.8,-1 1.37,-1.3 0.57,-0.31 1.2,-0.46 1.87,-0.46 0.59,0 1.14,0.13 1.64,0.39 0.51,0.26 0.93,0.62 1.26,1.07 0.33,0.45 0.55,0.96 0.66,1.53 0.04,0.24 0.06,0.48 0.06,0.71 -0.01,0.71 -0.18,1.35 -0.52,1.91 -0.34,0.56 -0.79,1 -1.36,1.31 -0.57,0.31 -1.2,0.47 -1.88,0.47 -0.58,0 -1.13,-0.13 -1.64,-0.39 -0.51,-0.26 -0.93,-0.61 -1.27,-1.06 -0.34,-0.45 -0.56,-0.96 -0.66,-1.52 -0.04,-0.25 -0.06,-0.49 -0.06,-0.72zm1.86 0c-0,0.17 0.01,0.31 0.03,0.44 0.05,0.28 0.16,0.53 0.32,0.76 0.16,0.22 0.37,0.4 0.61,0.53 0.25,0.13 0.52,0.19 0.82,0.19 0.35,0 0.67,-0.09 0.95,-0.26 0.28,-0.17 0.51,-0.4 0.68,-0.69 0.17,-0.29 0.26,-0.61 0.27,-0.97 0,-0.17 -0.01,-0.32 -0.03,-0.44 -0.05,-0.28 -0.16,-0.53 -0.32,-0.76 -0.16,-0.22 -0.37,-0.4 -0.61,-0.53 -0.25,-0.13 -0.52,-0.19 -0.82,-0.19 -0.35,0 -0.67,0.09 -0.95,0.26 -0.28,0.17 -0.51,0.4 -0.68,0.69 -0.17,0.29 -0.26,0.61 -0.27,0.97zm8.59 3.38c-0.01,0.07 -0.03,0.13 -0.06,0.16 -0.03,0.03 -0.08,0.05 -0.15,0.05l-1.37 0c-0.12,0 -0.2,-0.05 -0.21,-0.14 -0.01,-0.03 -0,-0.05 0,-0.08l0.94 -6.75c0.01,-0.07 0.03,-0.13 0.07,-0.16 0.04,-0.04 0.09,-0.05 0.15,-0.05l1.64 0c0.06,0 0.11,0.01 0.13,0.05 0.02,0.03 0.05,0.09 0.07,0.17l1.18 4.34 1.46 -4.34c0.03,-0.08 0.06,-0.14 0.09,-0.17 0.03,-0.03 0.07,-0.05 0.14,-0.05l1.74 0c0.06,0 0.11,0.01 0.14,0.04 0.03,0.03 0.05,0.07 0.06,0.12l0 0.05 0.51 6.75c0,0.07 -0.01,0.12 -0.05,0.16 -0.04,0.04 -0.09,0.05 -0.16,0.05l-1.37 0c-0.07,0 -0.12,-0.02 -0.15,-0.05 -0.03,-0.04 -0.05,-0.09 -0.06,-0.16l-0.27 -3.79 -1.25 3.78c-0.03,0.09 -0.06,0.15 -0.09,0.18 -0.03,0.03 -0.08,0.04 -0.15,0.04l-1.2 0c-0.07,0 -0.12,-0.01 -0.15,-0.05 -0.03,-0.03 -0.06,-0.09 -0.08,-0.18l-0.99 -3.87 -0.54 3.89zm10.16 -2.65c-0,0.14 0.01,0.28 0.03,0.4 0.06,0.31 0.19,0.54 0.39,0.69 0.2,0.15 0.45,0.22 0.73,0.22 0.22,0 0.42,-0.05 0.6,-0.15 0.18,-0.1 0.33,-0.25 0.44,-0.45 0.11,-0.2 0.17,-0.43 0.18,-0.71l0.13 -4.1c0,-0.06 0.02,-0.11 0.07,-0.15 0.04,-0.04 0.1,-0.06 0.17,-0.06l1.41 0c0.06,0 0.11,0.01 0.15,0.05 0.04,0.03 0.06,0.07 0.07,0.12 0,0.02 0.01,0.04 0,0.05l-0.12 4.07c-0.04,1.07 -0.32,1.84 -0.84,2.3 -0.52,0.46 -1.26,0.7 -2.21,0.7 -0.47,0 -0.92,-0.08 -1.34,-0.22 -0.42,-0.15 -0.78,-0.39 -1.08,-0.71 -0.3,-0.33 -0.5,-0.74 -0.59,-1.25 -0.05,-0.25 -0.06,-0.52 -0.05,-0.81l0.12 -4.07c0,-0.06 0.02,-0.11 0.06,-0.15 0.04,-0.04 0.09,-0.06 0.14,-0.06l1.48 0c0.11,0 0.18,0.04 0.19,0.13 0.01,0.03 0.01,0.06 0,0.09l-0.13 4.1zm7.83 2.65c-0,0.14 -0.08,0.21 -0.24,0.21l-1.35 0c-0.12,0 -0.19,-0.05 -0.21,-0.15 -0,-0.01 -0,-0.03 -0,-0.06l0.21 -6.75c0,-0.06 0.02,-0.11 0.06,-0.15 0.04,-0.04 0.09,-0.06 0.16,-0.06l1.46 0c0.13,0 0.24,0.07 0.33,0.22l2.39 4.07 0.13 -4.07c0,-0.06 0.02,-0.11 0.06,-0.15 0.04,-0.04 0.1,-0.06 0.17,-0.06l1.34 0c0.05,0 0.09,0.02 0.14,0.05 0.05,0.03 0.07,0.07 0.08,0.12 0,0.02 0,0.04 0,0.05l-0.22 6.75c-0.01,0.14 -0.08,0.21 -0.24,0.21l-1.41 0c-0.15,0 -0.26,-0.07 -0.35,-0.21l-2.41 -4.18 -0.13 4.18zm6.63 -6.75c0,-0.14 0.08,-0.22 0.22,-0.22l1.44 0c0.11,0 0.18,0.05 0.2,0.15 0,0.01 0,0.04 0,0.07l-0.22 6.75c-0.01,0.14 -0.08,0.21 -0.21,0.21l-1.44 0c-0.12,0 -0.19,-0.05 -0.21,-0.15 -0,-0.01 -0,-0.03 -0,-0.06l0.21 -6.75zm8.18 4.94c0.09,-0.06 0.15,-0.09 0.2,-0.09 0.06,0 0.1,0.03 0.14,0.09l0.75 1.16c0.03,0.04 0.05,0.08 0.06,0.12 0.01,0.03 -0,0.06 -0.02,0.09 -0.02,0.03 -0.06,0.06 -0.11,0.1 -0.3,0.2 -0.6,0.37 -0.92,0.48 -0.32,0.12 -0.68,0.17 -1.08,0.17 -0.58,0 -1.13,-0.14 -1.65,-0.4 -0.51,-0.27 -0.95,-0.64 -1.3,-1.12 -0.35,-0.47 -0.58,-1.01 -0.69,-1.61 -0.03,-0.19 -0.05,-0.38 -0.06,-0.58 -0.03,-0.7 0.12,-1.34 0.44,-1.9 0.32,-0.56 0.77,-1 1.35,-1.31 0.58,-0.32 1.22,-0.47 1.94,-0.47 0.41,0 0.79,0.07 1.14,0.21 0.35,0.14 0.66,0.32 0.94,0.54 0.05,0.03 0.07,0.07 0.08,0.13 0.01,0.04 -0,0.09 -0.03,0.13l-0.78 1.13c-0.04,0.05 -0.08,0.07 -0.13,0.07 -0.05,0 -0.11,-0.02 -0.16,-0.07 -0.15,-0.13 -0.31,-0.22 -0.47,-0.28 -0.16,-0.06 -0.34,-0.09 -0.55,-0.09 -0.35,0 -0.67,0.09 -0.96,0.25 -0.29,0.17 -0.52,0.4 -0.69,0.69 -0.17,0.29 -0.26,0.61 -0.28,0.96 -0,0.15 0.01,0.3 0.03,0.44 0.05,0.28 0.16,0.54 0.32,0.77 0.16,0.23 0.37,0.4 0.62,0.53 0.25,0.13 0.53,0.19 0.83,0.19 0.33,0 0.67,-0.12 1.02,-0.35zm5 -4.94c0.06,-0.14 0.16,-0.22 0.31,-0.22l1.18 0c0.14,0 0.23,0.07 0.28,0.22l2.42 6.75c0.01,0.01 0.01,0.03 0.01,0.05 0.02,0.1 -0.03,0.16 -0.15,0.16l-1.39 0c-0.14,0 -0.24,-0.07 -0.28,-0.21l-0.31 -0.95 -2.64 0 -0.36 0.95c-0.05,0.14 -0.15,0.21 -0.3,0.21l-1.49 0c-0.09,0 -0.15,-0.03 -0.16,-0.09 -0.01,-0.03 0,-0.07 0.02,-0.12l2.84 -6.75zm1.57 4.25l-0.71 -2.19 -0.83 2.19 1.54 0zm9.15 -3.82c0.05,0.03 0.07,0.07 0.08,0.13 0.01,0.04 -0,0.09 -0.03,0.13l-0.78 1.13c-0.04,0.05 -0.08,0.07 -0.13,0.07 -0.05,0 -0.11,-0.02 -0.16,-0.07 -0.15,-0.13 -0.31,-0.22 -0.47,-0.28 -0.16,-0.06 -0.34,-0.09 -0.55,-0.09 -0.35,0 -0.67,0.09 -0.96,0.25 -0.29,0.17 -0.52,0.4 -0.69,0.69 -0.17,0.29 -0.26,0.61 -0.28,0.96 -0,0.15 0.01,0.3 0.03,0.44 0.05,0.28 0.16,0.54 0.32,0.77 0.16,0.23 0.37,0.4 0.62,0.53 0.25,0.13 0.53,0.19 0.83,0.19 0.33,0 0.67,-0.12 1.02,-0.35 0.09,-0.06 0.15,-0.09 0.2,-0.09 0.06,0 0.1,0.03 0.14,0.09l0.75 1.16c0.03,0.04 0.05,0.08 0.06,0.12 0.01,0.03 -0,0.06 -0.02,0.09 -0.02,0.03 -0.06,0.06 -0.11,0.1 -0.28,0.19 -0.56,0.34 -0.84,0.45 -0.29,0.11 -0.61,0.18 -0.96,0.2 0.01,0.06 0.04,0.11 0.09,0.15 0.05,0.04 0.14,0.1 0.26,0.17 0.17,0.1 0.3,0.19 0.4,0.28 0.1,0.09 0.16,0.21 0.19,0.35 0,0.03 0.01,0.08 0.01,0.15 -0,0.21 -0.09,0.41 -0.25,0.62 -0.17,0.2 -0.37,0.38 -0.63,0.52 -0.25,0.15 -0.5,0.24 -0.75,0.29 -0.03,0.01 -0.06,0.01 -0.08,0.01 -0.07,0 -0.12,-0.03 -0.14,-0.08l-0.3 -0.64c-0.01,-0.01 -0.01,-0.03 -0.01,-0.05 -0.01,-0.03 -0,-0.06 0.01,-0.09 0.02,-0.02 0.04,-0.04 0.07,-0.05 0.3,-0.1 0.52,-0.19 0.64,-0.27 0.12,-0.08 0.17,-0.18 0.15,-0.29 -0.01,-0.08 -0.06,-0.15 -0.13,-0.21 -0.07,-0.06 -0.17,-0.14 -0.32,-0.24 -0.14,-0.09 -0.25,-0.18 -0.33,-0.25 -0.08,-0.07 -0.13,-0.15 -0.14,-0.24 -0,-0.01 -0,-0.04 -0,-0.07 0.01,-0.07 0.03,-0.14 0.06,-0.21 -0.44,-0.13 -0.84,-0.33 -1.21,-0.62 -0.37,-0.28 -0.67,-0.63 -0.92,-1.03 -0.25,-0.41 -0.41,-0.85 -0.5,-1.33 -0.03,-0.19 -0.05,-0.38 -0.06,-0.58 -0.03,-0.7 0.12,-1.34 0.44,-1.9 0.32,-0.56 0.77,-1 1.35,-1.31 0.58,-0.32 1.22,-0.47 1.94,-0.47 0.41,0 0.79,0.07 1.14,0.21 0.35,0.14 0.66,0.32 0.94,0.54zm3.78 -1.6c-0.03,0.03 -0.07,0.05 -0.1,0.05 -0.06,0 -0.14,-0.05 -0.24,-0.16l-0.3 -0.3c-0.04,-0.03 -0.06,-0.06 -0.09,-0.09 -0.02,-0.02 -0.03,-0.05 -0.04,-0.07 -0,-0.02 0,-0.05 0.02,-0.07 0.02,-0.03 0.04,-0.05 0.06,-0.09 0.03,-0.03 0.04,-0.06 0.05,-0.07 0.29,-0.41 0.64,-0.62 1.05,-0.62 0.12,0 0.24,0.03 0.36,0.08 0.12,0.05 0.27,0.12 0.44,0.22 0.11,0.06 0.21,0.11 0.28,0.14 0.07,0.03 0.13,0.05 0.19,0.05 0.08,0 0.14,-0.02 0.19,-0.05 0.05,-0.04 0.11,-0.1 0.19,-0.2 0.06,-0.07 0.12,-0.11 0.19,-0.11 0.06,0 0.11,0.03 0.16,0.09l0.43 0.44c0.03,0.03 0.05,0.07 0.05,0.1 0.01,0.04 -0,0.08 -0.03,0.11 -0.32,0.47 -0.71,0.71 -1.16,0.71 -0.13,0 -0.25,-0.02 -0.36,-0.07 -0.12,-0.05 -0.25,-0.12 -0.41,-0.21 -0.12,-0.07 -0.22,-0.12 -0.29,-0.15 -0.07,-0.03 -0.14,-0.05 -0.2,-0.05 -0.09,0 -0.16,0.02 -0.22,0.07 -0.06,0.05 -0.11,0.09 -0.15,0.15 -0.04,0.05 -0.07,0.09 -0.09,0.11zm0.08 1.17c0.06,-0.14 0.16,-0.22 0.31,-0.22l1.18 0c0.14,0 0.23,0.07 0.28,0.22l2.42 6.75c0.01,0.01 0.01,0.03 0.01,0.05 0.02,0.1 -0.03,0.16 -0.15,0.16l-1.39 0c-0.15,0 -0.24,-0.07 -0.28,-0.21l-0.31 -0.95 -2.64 0 -0.36 0.95c-0.05,0.14 -0.15,0.21 -0.3,0.21l-1.49 0c-0.09,0 -0.15,-0.03 -0.16,-0.09 -0.01,-0.03 0,-0.07 0.02,-0.12l2.84 -6.75zm1.57 4.25l-0.71 -2.19 -0.83 2.19 1.54 0zm3.29 -0.88c0.01,-0.72 0.18,-1.37 0.52,-1.93 0.34,-0.56 0.8,-1 1.37,-1.3 0.57,-0.31 1.2,-0.46 1.87,-0.46 0.59,0 1.14,0.13 1.64,0.39 0.51,0.26 0.93,0.62 1.26,1.07 0.33,0.45 0.55,0.96 0.66,1.53 0.04,0.24 0.06,0.48 0.06,0.71 -0.01,0.71 -0.18,1.35 -0.52,1.91 -0.34,0.56 -0.79,1 -1.36,1.31 -0.57,0.31 -1.2,0.47 -1.88,0.47 -0.58,0 -1.13,-0.13 -1.64,-0.39 -0.51,-0.26 -0.93,-0.61 -1.27,-1.06 -0.34,-0.45 -0.56,-0.96 -0.66,-1.52 -0.04,-0.25 -0.06,-0.49 -0.06,-0.72zm1.86 0c-0,0.17 0.01,0.31 0.03,0.44 0.05,0.28 0.16,0.53 0.32,0.76 0.16,0.22 0.37,0.4 0.61,0.53 0.25,0.13 0.52,0.19 0.82,0.19 0.35,0 0.67,-0.09 0.95,-0.26 0.28,-0.17 0.51,-0.4 0.68,-0.69 0.17,-0.29 0.26,-0.61 0.27,-0.97 0,-0.17 -0.01,-0.32 -0.03,-0.44 -0.05,-0.28 -0.16,-0.53 -0.32,-0.76 -0.16,-0.22 -0.37,-0.4 -0.61,-0.53 -0.25,-0.13 -0.52,-0.19 -0.82,-0.19 -0.35,0 -0.67,0.09 -0.95,0.26 -0.28,0.17 -0.51,0.4 -0.68,0.69 -0.17,0.29 -0.26,0.61 -0.27,0.97z"/>
    <path class="fil1" d="M58.53 34.06c-0.06,0.14 -0.16,0.21 -0.29,0.21l-1.14 0c-0.14,0 -0.24,-0.07 -0.29,-0.21l-2.37 -6.76c-0.01,-0.01 -0.01,-0.03 -0.02,-0.06 -0.02,-0.1 0.03,-0.16 0.16,-0.16l1.46 0.01c0.14,0 0.24,0.07 0.28,0.22l1.35 4.33 1.6 -4.33c0.06,-0.14 0.16,-0.22 0.3,-0.22l1.64 0c0.09,0 0.14,0.03 0.15,0.09 0.01,0.03 -0,0.07 -0.02,0.13l-2.8 6.75zm4.21 -6.75c0,-0.14 0.08,-0.22 0.22,-0.22l1.44 0c0.11,0 0.18,0.05 0.2,0.15 0,0.01 0,0.04 0,0.07l-0.22 6.75c-0.01,0.14 -0.08,0.21 -0.21,0.21l-1.44 0c-0.12,0 -0.19,-0.05 -0.21,-0.15 -0,-0.01 -0,-0.03 -0,-0.06l0.21 -6.75zm3.62 5.81c-0.08,-0.09 -0.12,-0.16 -0.13,-0.22 -0.01,-0.07 0.02,-0.14 0.09,-0.21l0.76 -0.78c0.05,-0.05 0.1,-0.07 0.15,-0.07 0.06,0 0.14,0.04 0.22,0.11 0.17,0.15 0.32,0.28 0.45,0.37 0.13,0.1 0.28,0.19 0.45,0.26 0.17,0.08 0.35,0.12 0.53,0.12 0.56,0 0.85,-0.22 0.87,-0.67 0,-0.02 -0,-0.04 -0.01,-0.07 -0.03,-0.15 -0.13,-0.28 -0.31,-0.38 -0.18,-0.1 -0.4,-0.19 -0.66,-0.29 -0.68,-0.24 -1.21,-0.52 -1.59,-0.83 -0.38,-0.31 -0.6,-0.68 -0.68,-1.11 -0.02,-0.12 -0.03,-0.26 -0.03,-0.43 0.01,-0.4 0.12,-0.75 0.32,-1.05 0.2,-0.3 0.48,-0.53 0.85,-0.69 0.37,-0.16 0.81,-0.24 1.32,-0.24 0.43,0 0.87,0.09 1.32,0.28 0.45,0.18 0.83,0.42 1.13,0.71 0.05,0.05 0.08,0.11 0.09,0.16 0.02,0.09 -0.02,0.18 -0.12,0.28l-0.65 0.72c-0.05,0.05 -0.11,0.08 -0.16,0.08 -0.07,0 -0.15,-0.04 -0.25,-0.13 -0.08,-0.07 -0.19,-0.15 -0.33,-0.23 -0.14,-0.08 -0.28,-0.14 -0.43,-0.2 -0.13,-0.05 -0.29,-0.07 -0.47,-0.07 -0.21,0 -0.39,0.04 -0.54,0.12 -0.15,0.08 -0.23,0.2 -0.23,0.37 0,0.04 0,0.07 0.01,0.09 0.02,0.09 0.07,0.18 0.16,0.25 0.09,0.07 0.2,0.14 0.35,0.19 0.14,0.06 0.34,0.13 0.59,0.21 0.43,0.15 0.79,0.3 1.08,0.46 0.3,0.16 0.54,0.36 0.73,0.59 0.19,0.23 0.31,0.5 0.37,0.82 0.03,0.17 0.04,0.34 0.04,0.51 -0.01,0.47 -0.13,0.87 -0.35,1.2 -0.22,0.33 -0.53,0.58 -0.92,0.76 -0.4,0.17 -0.86,0.26 -1.4,0.26 -0.32,0 -0.64,-0.05 -0.96,-0.17 -0.32,-0.11 -0.63,-0.26 -0.91,-0.45 -0.28,-0.19 -0.53,-0.4 -0.74,-0.63zm8.81 -1.71c-0,0.14 0.01,0.28 0.03,0.4 0.06,0.31 0.19,0.54 0.39,0.69 0.2,0.15 0.45,0.22 0.73,0.22 0.22,0 0.42,-0.05 0.6,-0.15 0.18,-0.1 0.33,-0.25 0.44,-0.45 0.11,-0.2 0.17,-0.43 0.18,-0.71l0.13 -4.1c0,-0.06 0.03,-0.11 0.07,-0.15 0.04,-0.04 0.1,-0.06 0.17,-0.06l1.41 0c0.06,0 0.11,0.01 0.15,0.05 0.04,0.03 0.06,0.07 0.07,0.12 0,0.02 0.01,0.04 0,0.05l-0.12 4.07c-0.04,1.07 -0.32,1.84 -0.84,2.3 -0.52,0.46 -1.26,0.7 -2.21,0.7 -0.47,0 -0.92,-0.08 -1.34,-0.22 -0.42,-0.15 -0.78,-0.39 -1.08,-0.72 -0.3,-0.33 -0.5,-0.74 -0.59,-1.25 -0.05,-0.25 -0.06,-0.52 -0.05,-0.81l0.12 -4.07c0,-0.06 0.02,-0.11 0.06,-0.15 0.04,-0.04 0.09,-0.06 0.14,-0.06l1.48 0c0.11,0 0.18,0.04 0.19,0.13 0.01,0.03 0.01,0.06 0,0.09l-0.13 4.1zm7.79 -4.1c0.06,-0.14 0.16,-0.22 0.31,-0.22l1.18 0c0.14,0 0.23,0.07 0.28,0.22l2.42 6.75c0.01,0.01 0.01,0.03 0.01,0.05 0.02,0.1 -0.03,0.16 -0.15,0.16l-1.39 0c-0.14,0 -0.24,-0.07 -0.28,-0.21l-0.31 -0.95 -2.64 0 -0.36 0.95c-0.05,0.14 -0.15,0.21 -0.3,0.21l-1.49 0c-0.09,0 -0.15,-0.03 -0.16,-0.09 -0.01,-0.03 0,-0.07 0.02,-0.12l2.84 -6.75zm1.57 4.25l-0.71 -2.19 -0.83 2.19 1.54 0zm4.12 -4.25c0,-0.07 0.03,-0.12 0.07,-0.16 0.04,-0.04 0.09,-0.06 0.15,-0.06l1.44 0c0.11,0 0.18,0.05 0.2,0.15 0,0.01 0,0.04 0,0.07l-0.16 5.25 2.68 0c0.12,0 0.18,0.05 0.2,0.14 0,0.01 0,0.04 0,0.07l-0.04 1.29c-0.01,0.14 -0.08,0.21 -0.21,0.21l-4.33 0c-0.12,0 -0.18,-0.05 -0.2,-0.14 -0,-0.01 -0,-0.04 -0,-0.07l0.22 -6.75z"/>
   </g>
  </g>
 </g>
</svg>
