<?xml version="1.0" encoding="UTF-8"?>
<!DOCTYPE svg PUBLIC "-//W3C//DTD SVG 1.1//EN" "http://www.w3.org/Graphics/SVG/1.1/DTD/svg11.dtd">
<!-- Creator: CorelDRAW 2020 (64 Bit) -->
<svg xmlns="http://www.w3.org/2000/svg" xml:space="preserve" width="74.1514mm" height="6.7903mm" version="1.1" style="shape-rendering:geometricPrecision; text-rendering:geometricPrecision; image-rendering:optimizeQuality; fill-rule:evenodd; clip-rule:evenodd"
viewBox="0 0 1037.58 95.01"
 xmlns:xlink="http://www.w3.org/1999/xlink"
 xmlns:xodm="http://www.corel.com/coreldraw/odm/2003">
 <defs>
  <style type="text/css">
   <![CDATA[
    .str1 {stroke:#9466FF;stroke-width:1.07;stroke-miterlimit:22.9256}
    .str0 {stroke:white;stroke-width:1.07;stroke-miterlimit:22.9256}
    .fil1 {fill:#9466FF;fill-rule:nonzero}
    .fil0 {fill:white;fill-rule:nonzero}
   ]]>
  </style>
 </defs>
 <g id="Camada_x0020_1">
  <metadata id="CorelCorpID_0Corel-Layer"/>
  <g id="_2463539605568">
   <path class="fil0 str0" d="M17.12 80.26l27.25 0 0 13.15 -43.83 0 0 -82.69 16.59 0 0 69.54zm98.81 -21.09c0,2.37 -0.16,4.5 -0.47,6.4l-47.98 0c0.39,4.74 2.05,8.45 4.98,11.14 2.92,2.69 6.51,4.03 10.78,4.03 6.16,0 10.54,-2.65 13.15,-7.94l17.89 0c-1.89,6.32 -5.53,11.51 -10.9,15.58 -5.37,4.07 -11.97,6.1 -19.79,6.1 -6.32,0 -11.98,-1.4 -17,-4.21 -5.02,-2.8 -8.93,-6.77 -11.73,-11.91 -2.8,-5.13 -4.21,-11.06 -4.21,-17.77 0,-6.79 1.38,-12.76 4.15,-17.89 2.76,-5.13 6.64,-9.08 11.61,-11.85 4.98,-2.76 10.7,-4.15 17.18,-4.15 6.24,0 11.83,1.34 16.76,4.03 4.94,2.69 8.77,6.5 11.49,11.43 2.72,4.94 4.09,10.6 4.09,17zm-17.18 -4.74c-0.08,-4.26 -1.62,-7.68 -4.62,-10.25 -3,-2.57 -6.67,-3.85 -11.02,-3.85 -4.11,0 -7.56,1.24 -10.37,3.73 -2.8,2.49 -4.52,5.94 -5.15,10.37l31.16 0zm58.41 40.04c-6.32,0 -12,-1.4 -17.06,-4.21 -5.05,-2.8 -9.02,-6.77 -11.91,-11.91 -2.88,-5.13 -4.32,-11.06 -4.32,-17.77 0,-6.71 1.48,-12.64 4.44,-17.77 2.96,-5.13 7.01,-9.1 12.14,-11.91 5.13,-2.8 10.86,-4.21 17.18,-4.21 6.32,0 12.04,1.4 17.18,4.21 5.13,2.8 9.18,6.77 12.14,11.91 2.96,5.13 4.44,11.06 4.44,17.77 0,6.71 -1.52,12.64 -4.56,17.77 -3.04,5.13 -7.15,9.1 -12.32,11.91 -5.17,2.8 -10.96,4.21 -17.36,4.21zm0 -14.45c3,0 5.83,-0.73 8.47,-2.19 2.65,-1.46 4.76,-3.65 6.34,-6.58 1.58,-2.92 2.37,-6.48 2.37,-10.66 0,-6.24 -1.64,-11.04 -4.92,-14.39 -3.28,-3.36 -7.29,-5.03 -12.03,-5.03 -4.74,0 -8.71,1.68 -11.91,5.03 -3.2,3.36 -4.8,8.15 -4.8,14.39 0,6.24 1.56,11.04 4.68,14.39 3.12,3.36 7.05,5.04 11.79,5.04zm82.81 -53.19c7.82,0 14.14,2.47 18.96,7.4 4.82,4.94 7.23,11.83 7.23,20.67l0 38.5 -16.59 0 0 -36.25c0,-5.21 -1.3,-9.22 -3.91,-12.03 -2.61,-2.8 -6.16,-4.2 -10.66,-4.2 -4.58,0 -8.19,1.4 -10.84,4.2 -2.65,2.8 -3.97,6.81 -3.97,12.03l0 36.25 -16.59 0 0 -65.63 16.59 0 0 8.18c2.21,-2.84 5.04,-5.08 8.47,-6.69 3.44,-1.62 7.21,-2.43 11.31,-2.43zm37.67 33.53c0,-6.63 1.32,-12.52 3.97,-17.65 2.65,-5.13 6.24,-9.08 10.78,-11.85 4.54,-2.76 9.62,-4.15 15.22,-4.15 4.9,0 9.18,0.99 12.85,2.96 3.67,1.97 6.61,4.46 8.83,7.46l0 -9.36 16.7 0 0 65.63 -16.7 0 0 -9.6c-2.13,3.08 -5.08,5.63 -8.83,7.64 -3.75,2.01 -8.08,3.02 -12.97,3.02 -5.53,0 -10.56,-1.42 -15.11,-4.26 -4.54,-2.84 -8.14,-6.85 -10.78,-12.03 -2.65,-5.17 -3.97,-11.12 -3.97,-17.83zm51.65 0.24c0,-4.03 -0.79,-7.48 -2.37,-10.37 -1.58,-2.88 -3.71,-5.09 -6.4,-6.63 -2.69,-1.54 -5.57,-2.31 -8.65,-2.31 -3.08,0 -5.92,0.75 -8.53,2.25 -2.61,1.5 -4.72,3.69 -6.34,6.58 -1.62,2.88 -2.43,6.3 -2.43,10.25 0,3.95 0.81,7.4 2.43,10.37 1.62,2.96 3.75,5.23 6.4,6.81 2.65,1.58 5.47,2.37 8.47,2.37 3.08,0 5.96,-0.77 8.65,-2.31 2.69,-1.54 4.82,-3.75 6.4,-6.63 1.58,-2.88 2.37,-6.34 2.37,-10.37zm49.52 -22.63c2.13,-3.48 4.92,-6.2 8.35,-8.17 3.44,-1.97 7.37,-2.96 11.79,-2.96l0 17.42 -4.38 0c-5.21,0 -9.14,1.22 -11.79,3.67 -2.65,2.45 -3.97,6.71 -3.97,12.79l0 32.7 -16.59 0 0 -65.63 16.59 0 0 10.19zm27.01 22.39c0,-6.63 1.32,-12.52 3.97,-17.65 2.65,-5.13 6.26,-9.08 10.84,-11.85 4.58,-2.76 9.68,-4.15 15.28,-4.15 4.26,0 8.33,0.93 12.2,2.78 3.87,1.86 6.95,4.32 9.24,7.4l0 -31.16 16.82 0 0 87.67 -16.82 0 0 -9.72c-2.05,3.24 -4.94,5.84 -8.65,7.82 -3.71,1.97 -8.02,2.96 -12.91,2.96 -5.53,0 -10.58,-1.42 -15.17,-4.26 -4.58,-2.84 -8.19,-6.85 -10.84,-12.03 -2.65,-5.17 -3.97,-11.12 -3.97,-17.83zm51.65 0.24c0,-4.03 -0.79,-7.48 -2.37,-10.37 -1.58,-2.88 -3.71,-5.09 -6.4,-6.63 -2.69,-1.54 -5.57,-2.31 -8.65,-2.31 -3.08,0 -5.92,0.75 -8.53,2.25 -2.61,1.5 -4.72,3.69 -6.34,6.58 -1.62,2.88 -2.43,6.3 -2.43,10.25 0,3.95 0.81,7.4 2.43,10.37 1.62,2.96 3.75,5.23 6.4,6.81 2.65,1.58 5.47,2.37 8.47,2.37 3.08,0 5.96,-0.77 8.65,-2.31 2.69,-1.54 4.82,-3.75 6.4,-6.63 1.58,-2.88 2.37,-6.34 2.37,-10.37zm62.08 33.88c-6.32,0 -12,-1.4 -17.06,-4.21 -5.05,-2.8 -9.02,-6.77 -11.91,-11.91 -2.88,-5.13 -4.32,-11.06 -4.32,-17.77 0,-6.71 1.48,-12.64 4.44,-17.77 2.96,-5.13 7.01,-9.1 12.14,-11.91 5.13,-2.8 10.86,-4.21 17.18,-4.21 6.32,0 12.04,1.4 17.18,4.21 5.13,2.8 9.18,6.77 12.14,11.91 2.96,5.13 4.44,11.06 4.44,17.77 0,6.71 -1.52,12.64 -4.56,17.77 -3.04,5.13 -7.15,9.1 -12.32,11.91 -5.17,2.8 -10.96,4.21 -17.36,4.21zm0 -14.45c3,0 5.83,-0.73 8.47,-2.19 2.65,-1.46 4.76,-3.65 6.34,-6.58 1.58,-2.92 2.37,-6.48 2.37,-10.66 0,-6.24 -1.64,-11.04 -4.92,-14.39 -3.28,-3.36 -7.29,-5.03 -12.03,-5.03 -4.74,0 -8.71,1.68 -11.91,5.03 -3.2,3.36 -4.8,8.15 -4.8,14.39 0,6.24 1.56,11.04 4.68,14.39 3.12,3.36 7.05,5.04 11.79,5.04z"/>
   <path class="fil1 str1" d="M684.35 10.72l0 82.69 -16.59 0 0 -53.79 -22.15 53.79 -12.56 0 -22.27 -53.79 0 53.79 -16.59 0 0 -82.69 18.84 0 26.3 61.49 26.3 -61.49 18.72 0zm12.08 49.64c0,-6.63 1.32,-12.52 3.97,-17.65 2.65,-5.13 6.24,-9.08 10.78,-11.85 4.54,-2.76 9.62,-4.15 15.22,-4.15 4.9,0 9.18,0.99 12.85,2.96 3.67,1.97 6.61,4.46 8.83,7.46l0 -9.36 16.7 0 0 65.63 -16.7 0 0 -9.6c-2.13,3.08 -5.08,5.63 -8.83,7.64 -3.75,2.01 -8.08,3.02 -12.97,3.02 -5.53,0 -10.56,-1.42 -15.11,-4.26 -4.54,-2.84 -8.14,-6.85 -10.78,-12.03 -2.65,-5.17 -3.97,-11.12 -3.97,-17.83zm51.65 0.24c0,-4.03 -0.79,-7.48 -2.37,-10.37 -1.58,-2.88 -3.71,-5.09 -6.4,-6.63 -2.69,-1.54 -5.57,-2.31 -8.65,-2.31 -3.08,0 -5.92,0.75 -8.53,2.25 -2.61,1.5 -4.72,3.69 -6.34,6.58 -1.62,2.88 -2.43,6.3 -2.43,10.25 0,3.95 0.81,7.4 2.43,10.37 1.62,2.96 3.75,5.23 6.4,6.81 2.65,1.58 5.47,2.37 8.47,2.37 3.08,0 5.96,-0.77 8.65,-2.31 2.69,-1.54 4.82,-3.75 6.4,-6.63 1.58,-2.88 2.37,-6.34 2.37,-10.37zm49.52 -22.63c2.13,-3.48 4.92,-6.2 8.35,-8.17 3.44,-1.97 7.37,-2.96 11.79,-2.96l0 17.42 -4.38 0c-5.21,0 -9.14,1.22 -11.79,3.67 -2.65,2.45 -3.97,6.71 -3.97,12.79l0 32.7 -16.59 0 0 -65.63 16.59 0 0 10.19zm50.59 3.44l0 31.75c0,2.21 0.53,3.81 1.6,4.8 1.07,0.99 2.86,1.48 5.39,1.48l7.7 0 0 13.98 -10.42 0c-13.98,0 -20.97,-6.79 -20.97,-20.38l0 -31.63 -7.82 0 0 -13.62 7.82 0 0 -16.23 16.7 0 0 16.23 14.69 0 0 13.62 -14.69 0zm35.07 -21.44c-2.92,0 -5.35,-0.93 -7.29,-2.78 -1.94,-1.86 -2.9,-4.17 -2.9,-6.93 0,-2.76 0.97,-5.08 2.9,-6.93 1.94,-1.86 4.36,-2.78 7.29,-2.78 2.92,0 5.35,0.93 7.29,2.78 1.94,1.86 2.9,4.17 2.9,6.93 0,2.76 -0.97,5.07 -2.9,6.93 -1.93,1.86 -4.36,2.78 -7.29,2.78zm8.17 7.82l0 65.63 -16.59 0 0 -65.63 16.59 0zm52.72 -0.95c7.82,0 14.14,2.47 18.96,7.4 4.82,4.94 7.23,11.83 7.23,20.67l0 38.5 -16.59 0 0 -36.25c0,-5.21 -1.3,-9.22 -3.91,-12.03 -2.61,-2.8 -6.16,-4.2 -10.66,-4.2 -4.58,0 -8.19,1.4 -10.84,4.2 -2.65,2.8 -3.97,6.81 -3.97,12.03l0 36.25 -16.59 0 0 -65.63 16.59 0 0 8.18c2.21,-2.84 5.04,-5.08 8.47,-6.69 3.44,-1.62 7.21,-2.43 11.31,-2.43zm67.05 67.65c-5.37,0 -10.19,-0.97 -14.45,-2.9 -4.26,-1.94 -7.64,-4.56 -10.13,-7.88 -2.49,-3.32 -3.85,-6.99 -4.09,-11.02l16.7 0c0.32,2.53 1.56,4.62 3.73,6.28 2.17,1.66 4.88,2.49 8.12,2.49 3.16,0 5.63,-0.63 7.4,-1.9 1.78,-1.26 2.67,-2.88 2.67,-4.86 0,-2.13 -1.09,-3.73 -3.26,-4.8 -2.17,-1.07 -5.63,-2.23 -10.37,-3.5 -4.9,-1.19 -8.9,-2.41 -12.03,-3.67 -3.12,-1.26 -5.81,-3.2 -8.06,-5.8 -2.25,-2.61 -3.38,-6.12 -3.38,-10.54 0,-3.63 1.05,-6.95 3.14,-9.95 2.09,-3 5.09,-5.37 9,-7.11 3.91,-1.74 8.51,-2.61 13.8,-2.61 7.82,0 14.06,1.95 18.72,5.86 4.66,3.91 7.23,9.18 7.7,15.82l-15.87 0c-0.24,-2.61 -1.32,-4.68 -3.26,-6.22 -1.94,-1.54 -4.52,-2.31 -7.76,-2.31 -3,0 -5.31,0.55 -6.93,1.66 -1.62,1.11 -2.43,2.65 -2.43,4.62 0,2.21 1.11,3.89 3.32,5.03 2.21,1.15 5.65,2.31 10.31,3.5 4.74,1.19 8.65,2.41 11.73,3.67 3.08,1.26 5.75,3.22 8,5.86 2.25,2.64 3.42,6.14 3.5,10.48 0,3.79 -1.05,7.19 -3.14,10.19 -2.09,3 -5.09,5.35 -9,7.05 -3.91,1.7 -8.47,2.55 -13.68,2.55z"/>
  </g>
 </g>
</svg>
