<?xml version="1.0" encoding="UTF-8"?>
<!DOCTYPE svg PUBLIC "-//W3C//DTD SVG 1.1//EN" "http://www.w3.org/Graphics/SVG/1.1/DTD/svg11.dtd">
<!-- Creator: CorelDRAW 2020 (64 Bit) -->
<svg xmlns="http://www.w3.org/2000/svg" xml:space="preserve" width="508.474mm" height="248.135mm" version="1.1" style="shape-rendering:geometricPrecision; text-rendering:geometricPrecision; image-rendering:optimizeQuality; fill-rule:evenodd; clip-rule:evenodd"
viewBox="0 0 12084.02 5897"
 xmlns:xlink="http://www.w3.org/1999/xlink"
 xmlns:xodm="http://www.corel.com/coreldraw/odm/2003">
 <defs>
  <style type="text/css">
   <![CDATA[
    .fil0 {fill:#09090A}
    .fil1 {fill:#FF6600;fill-rule:nonzero;fill-opacity:0.200000}
   ]]>
  </style>
 </defs>
 <g id="Camada_x0020_1">
  <metadata id="CorelCorpID_0Corel-Layer"/>
  <rect class="fil0" x="0" y="-0.01" width="12084.02" height="5897"/>
  <path class="fil1" d="M991.24 3245.6l136.24 0 0 140.43c-46.81,0.03 -93.62,0.03 -140.43,0l0 -140.43 4.19 0zm127.85 8.38l-123.66 0 0 123.66 123.66 0 0 -123.66z"/>
  <path class="fil1" d="M2959.89 4785.6l136.24 0 0 140.43 -140.43 0 0 -140.43 4.19 0zm127.85 8.38l-123.66 0 0 123.66 123.66 0 0 -123.66z"/>
  <path class="fil1" d="M8084.52 1013.39l136.24 0c-0.03,46.81 -0.03,93.62 0,140.43l-140.43 0 0 -140.43 4.19 0zm127.85 8.38l-123.66 0 0 123.66 123.66 0 0 -123.66z"/>
  <path class="fil1" d="M11251 4071.39l136.24 0 0 140.43 -140.43 0 0 -140.43 4.19 0zm127.85 8.38l-123.66 0 0 123.66 123.66 0 0 -123.66z"/>
  <path class="fil1" d="M8578.66 4441.06l136.24 0 0 140.43 -140.43 0 0 -140.43 4.19 0zm127.85 8.38l-123.66 0 0 123.66 123.66 0 0 -123.66z"/>
  <path class="fil1" d="M7954.33 4894.84l136.24 0c-0.03,46.81 -0.03,93.62 0,140.43l-140.43 0 0 -140.43 4.19 0zm127.85 8.38l-123.66 0 0 123.66 123.66 0 0 -123.66z"/>
  <path class="fil1" d="M3960.73 976.17l136.24 -0 0 140.43 -140.43 0 0 -140.43 4.19 0zm127.85 8.38l-123.66 0 0 123.66 123.66 0 0 -123.66z"/>
  <path class="fil1" d="M4728.8 4161.63c20.4,0 38.88,8.27 52.24,21.64 13.37,13.37 21.64,31.84 21.64,52.24 0,20.4 -8.27,38.88 -21.64,52.24 -13.37,13.37 -31.84,21.64 -52.24,21.64 -20.4,0 -38.88,-8.27 -52.24,-21.64 -13.37,-13.37 -21.64,-31.84 -21.64,-52.24 0,-20.4 8.27,-38.88 21.64,-52.24 13.37,-13.37 31.84,-21.64 52.24,-21.64zm46.32 27.57c-11.85,-11.85 -28.23,-19.18 -46.32,-19.18 -18.09,0 -34.46,7.33 -46.32,19.18 -11.85,11.85 -19.18,28.23 -19.18,46.32 0,18.09 7.33,34.46 19.18,46.32 11.85,11.85 28.23,19.18 46.32,19.18 18.09,0 34.46,-7.33 46.32,-19.18 11.85,-11.85 19.18,-28.23 19.18,-46.32 0,-18.09 -7.33,-34.46 -19.18,-46.32z"/>
  <path class="fil1" d="M5411.04 4180.49c20.4,0 38.88,8.27 52.24,21.64 13.37,13.37 21.64,31.84 21.64,52.24 0,20.4 -8.27,38.88 -21.64,52.24 -13.37,13.37 -31.84,21.64 -52.24,21.64 -20.4,0 -38.88,-8.27 -52.24,-21.64 -13.37,-13.37 -21.64,-31.84 -21.64,-52.24 0,-20.4 8.27,-38.88 21.64,-52.24 13.37,-13.37 31.84,-21.64 52.24,-21.64zm46.32 27.57c-11.85,-11.85 -28.23,-19.18 -46.32,-19.18 -18.09,0 -34.46,7.33 -46.32,19.18 -11.85,11.85 -19.18,28.23 -19.18,46.32 0,18.09 7.33,34.46 19.18,46.32 11.85,11.85 28.23,19.18 46.32,19.18 18.09,0 34.46,-7.33 46.32,-19.18 11.85,-11.85 19.18,-28.23 19.18,-46.32 0,-18.09 -7.33,-34.46 -19.18,-46.32z"/>
  <path class="fil1" d="M6329.34 2421.45c20.4,0 38.88,8.27 52.24,21.64 13.37,13.37 21.64,31.84 21.64,52.24 0,20.4 -8.27,38.88 -21.64,52.24 -13.37,13.37 -31.84,21.64 -52.24,21.64 -20.4,0 -38.88,-8.27 -52.24,-21.64 -13.37,-13.37 -21.64,-31.84 -21.64,-52.24 0,-20.4 8.27,-38.88 21.64,-52.24 13.37,-13.37 31.84,-21.64 52.24,-21.64zm46.32 27.57c-11.85,-11.85 -28.23,-19.18 -46.32,-19.18 -18.09,0 -34.46,7.33 -46.32,19.18 -11.85,11.85 -19.18,28.23 -19.18,46.32 0,18.09 7.33,34.46 19.18,46.32 11.85,11.85 28.23,19.18 46.32,19.18 18.09,0 34.46,-7.33 46.32,-19.18 11.85,-11.85 19.18,-28.23 19.18,-46.32 0,-18.09 -7.33,-34.46 -19.18,-46.32z"/>
  <path class="fil1" d="M9749.43 3113.12c20.4,0 38.88,8.27 52.24,21.64 13.37,13.37 21.64,31.84 21.64,52.24 0,20.4 -8.27,38.88 -21.64,52.24 -13.37,13.37 -31.84,21.64 -52.24,21.64 -20.4,0 -38.88,-8.27 -52.24,-21.64 -13.37,-13.37 -21.64,-31.84 -21.64,-52.24 0,-20.4 8.27,-38.88 21.64,-52.24 13.37,-13.37 31.84,-21.64 52.24,-21.64zm46.32 27.57c-11.85,-11.85 -28.23,-19.18 -46.32,-19.18 -18.09,0 -34.46,7.33 -46.32,19.18 -11.85,11.85 -19.18,28.23 -19.18,46.32 0,18.09 7.33,34.46 19.18,46.32 11.85,11.85 28.23,19.18 46.32,19.18 18.09,0 34.46,-7.33 46.32,-19.18 11.85,-11.85 19.18,-28.23 19.18,-46.32 0,-18.09 -7.33,-34.46 -19.18,-46.32z"/>
  <path class="fil1" d="M10175.7 1448.4c20.4,0 38.88,8.27 52.24,21.64 13.37,13.37 21.64,31.84 21.64,52.24 0,20.4 -8.27,38.88 -21.64,52.24 -13.37,13.37 -31.84,21.64 -52.24,21.64 -20.4,0 -38.88,-8.27 -52.24,-21.64 -13.37,-13.37 -21.64,-31.84 -21.64,-52.24 0,-20.4 8.27,-38.88 21.64,-52.24 13.37,-13.37 31.84,-21.64 52.24,-21.64zm46.32 27.57c-11.85,-11.85 -28.23,-19.18 -46.32,-19.18 -18.09,0 -34.46,7.33 -46.32,19.18 -11.85,11.85 -19.18,28.23 -19.18,46.32 0,18.09 7.33,34.46 19.18,46.32 11.85,11.85 28.23,19.18 46.32,19.18 18.09,0 34.46,-7.33 46.32,-19.18 11.85,-11.85 19.18,-28.23 19.18,-46.32 0,-18.09 -7.33,-34.46 -19.18,-46.32z"/>
  <path class="fil1" d="M1589.06 1757.55c20.4,0 38.88,8.27 52.24,21.64 13.37,13.37 21.64,31.84 21.64,52.24 0,20.4 -8.27,38.88 -21.64,52.24 -13.37,13.37 -31.84,21.64 -52.24,21.64 -20.4,0 -38.88,-8.27 -52.24,-21.64 -13.37,-13.37 -21.64,-31.84 -21.64,-52.24 0,-20.4 8.27,-38.88 21.64,-52.24 13.37,-13.37 31.84,-21.64 52.24,-21.64zm46.32 27.57c-11.85,-11.85 -28.23,-19.18 -46.32,-19.18 -18.09,0 -34.46,7.33 -46.32,19.18 -11.85,11.85 -19.18,28.23 -19.18,46.32 0,18.09 7.33,34.46 19.18,46.32 11.85,11.85 28.23,19.18 46.32,19.18 18.09,0 34.46,-7.33 46.32,-19.18 11.85,-11.85 19.18,-28.23 19.18,-46.32 0,-18.09 -7.33,-34.46 -19.18,-46.32z"/>
  <path class="fil1" d="M2697.56 410.37c20.4,0 38.88,8.27 52.24,21.64 13.37,13.37 21.64,31.84 21.64,52.24 0,20.4 -8.27,38.88 -21.64,52.24 -13.37,13.37 -31.84,21.64 -52.24,21.64 -20.4,0 -38.88,-8.27 -52.24,-21.64 -13.37,-13.37 -21.64,-31.84 -21.64,-52.24 0,-20.4 8.27,-38.88 21.64,-52.24 13.37,-13.37 31.84,-21.64 52.24,-21.64zm46.32 27.57c-11.85,-11.85 -28.23,-19.18 -46.32,-19.18 -18.09,0 -34.46,7.33 -46.32,19.18 -11.85,11.85 -19.18,28.23 -19.18,46.32 0,18.09 7.33,34.46 19.18,46.32 11.85,11.85 28.23,19.18 46.32,19.18 18.09,0 34.46,-7.33 46.32,-19.18 11.85,-11.85 19.18,-28.23 19.18,-46.32 0,-18.09 -7.33,-34.46 -19.18,-46.32z"/>
  <path class="fil1" d="M11234.68 2378.48l136.24 0 0 140.43 -140.43 0c-0.03,-46.81 -0.03,-93.62 0,-140.43l4.19 0zm127.85 8.38l-123.66 0 0 123.66 123.66 0 0 -123.66z"/>
  <path class="fil1" d="M5576.41 539.91l80.24 139.23 -167.72 0 83.86 -145.51 3.62 6.28zm65.77 130.84l-69.39 -120.4 -69.39 120.4 138.78 0z"/>
  <path class="fil1" d="M7358.91 1215l80.24 139.23 -167.72 0 83.86 -145.51 3.62 6.28zm65.77 130.84l-69.39 -120.4 -69.39 120.4 138.78 0z"/>
 </g>
</svg>
