<?xml version="1.0" encoding="utf-8"?><svg xmlns="http://www.w3.org/2000/svg" xmlns:xlink="http://www.w3.org/1999/xlink" width="1920" height="937" preserveAspectRatio="xMidYMid" viewBox="0 0 1920 937" style="z-index:1;display:block;background-color:rgb(7, 6, 22);animation-play-state:paused" ><g transform="translate(960,468.5) scale(1,1) translate(-960,-468.5)" style="animation-play-state:paused" ><defs style="animation-play-state:paused" ><path id="path-buhzre0wvri-1" d="M-35 -35L35 -35L35 35L-35 35Z" fill="none" stroke="inherit" stroke-width="4.333333333333334" transform="scale(0.3)" style="animation-play-state:paused" ></path>

  
<path id="path-buhzre0wvri-2" d="M0 -37A37 37 0 0 1 0 37A37 37 0 0 1 0 -37" fill="none" stroke="inherit" stroke-width="4.333333333333334" transform="scale(0.3)" style="animation-play-state:paused" ></path>

  
<path id="path-buhzre0wvri-3" d="M0 -34.641L40 34.641L-40 34.641Z" fill="none" stroke="inherit" stroke-width="4.333333333333334" transform="scale(0.3)" style="animation-play-state:paused" ></path></defs>
<path id="path0" d="M 60.01442881493186 784.7935577876566
c 0 50.97374703322838 -12.472299806002686 14.64139542443794 -27.113695230440626 14.64139542443794
S 5.787038354050608 835.767304820885 5.787038354050608 784.7935577876566
s 12.472299806002686 -14.64139542443794 27.113695230440626 -14.64139542443794
S 60.01442881493186 733.8198107544282 60.01442881493186 784.7935577876566
z" fill="none" stroke="none" style="animation-play-state:paused" ></path>


<use xlink:href="#path-buhzre0wvri-3" x="0" y="0" stroke="#ddeeff" transform="translate(52.38860321044922 811.455810546875)" style="animation-play-state:paused" ></use>
<path id="path1" d="M 171.6483745585074 514.449172567467
c 0 23.561871847875288 -5.7651388563950166 6.767771700985455 -12.532910557380472 6.767771700985455
S 146.5825534437465 538.0110444153423 146.5825534437465 514.449172567467
s 5.7651388563950166 -6.767771700985455 12.532910557380472 -6.767771700985455
S 171.6483745585074 490.88730071959174 171.6483745585074 514.449172567467
z" fill="none" stroke="none" style="animation-play-state:paused" ></path>


<use xlink:href="#path-buhzre0wvri-1" x="0" y="0" stroke="#bbddff" transform="translate(167.915771484375 526.66650390625)" style="animation-play-state:paused" ></use>
<path id="path2" d="M 276.43086875220325 268.68363943976306
c 0 64.22601164910608 -15.71487519073872 18.44789696304111 -34.16277215377983 18.44789696304111
S 208.1053244446436 332.90965108886917 208.1053244446436 268.68363943976306
s 15.71487519073872 -18.44789696304111 34.16277215377983 -18.44789696304111
S 276.43086875220325 204.45762779065697 276.43086875220325 268.68363943976306
z" fill="none" stroke="none" style="animation-play-state:paused" ></path>


<use xlink:href="#path-buhzre0wvri-2" x="0" y="0" stroke="#ddeeff" transform="translate(252.37115478515625 291.00201416015625)" style="animation-play-state:paused" ></use>
<path id="path3" d="M 429.0226612211068 64.74613279503706
c 0 62.837775719480305 -15.3752004420005 18.04914834495711 -33.42434878695761 18.04914834495711
S 362.1739636471916 127.58390851451736 362.1739636471916 64.74613279503706
s 15.3752004420005 -18.04914834495711 33.42434878695761 -18.04914834495711
S 429.0226612211068 1.9083570755567507 429.0226612211068 64.74613279503706
z" fill="none" stroke="none" style="animation-play-state:paused" ></path>


<use xlink:href="#path-buhzre0wvri-2" x="0" y="0" stroke="#ddeeff" transform="translate(428.79449462890625 76.56024932861328)" style="animation-play-state:paused" ></use>
<path id="path4" d="M 485.65468895264837 757.5521949221361
c 0 26.959877394200728 -6.5965657453895385 7.743794570674677 -14.340360316064215 7.743794570674677
S 456.97396832051993 784.5120723163368 456.97396832051993 757.5521949221361
s 6.5965657453895385 -7.743794570674677 14.340360316064215 -7.743794570674677
S 485.65468895264837 730.5923175279354 485.65468895264837 757.5521949221361
z" fill="none" stroke="none" style="animation-play-state:paused" ></path>


<use xlink:href="#path-buhzre0wvri-1" x="0" y="0" stroke="#aabbcc" transform="translate(481.1980895996094 771.4248046875)" style="animation-play-state:paused" ></use>
<path id="path5" d="M 639.8291184744515 160.533534265264
c 0 25.370334392799286 -6.20763501100408 7.287223708570008 -13.494858719574088 7.287223708570008
S 612.8394010353035 185.9038686580633 612.8394010353035 160.533534265264
s 6.20763501100408 -7.287223708570008 13.494858719574088 -7.287223708570008
S 639.8291184744515 135.1631998724647 639.8291184744515 160.533534265264
z" fill="none" stroke="none" style="animation-play-state:paused" ></path>


<use xlink:href="#path-buhzre0wvri-1" x="0" y="0" stroke="#ddeeff" transform="translate(639.6968994140625 166.1117706298828)" style="animation-play-state:paused" ></use>
<path id="path6" d="M 760.4820690168042 666.8299370915092
c 0 20.374616806862072 -4.985278580402421 5.852283550907191 -10.837562131309612 5.852283550907191
S 738.806944754185 687.2045538983713 738.806944754185 666.8299370915092
s 4.985278580402421 -5.852283550907191 10.837562131309612 -5.852283550907191
S 760.4820690168042 646.4553202846472 760.4820690168042 666.8299370915092
z" fill="none" stroke="none" style="animation-play-state:paused" ></path>


<use xlink:href="#path-buhzre0wvri-2" x="0" y="0" stroke="#bbddff" transform="translate(751.3942260742188 673.0790405273438)" style="animation-play-state:paused" ></use>
<path id="path7" d="M 867.9197716691061 666.9172119783001
c 0 23.21728130493669 -5.680824149080253 6.668793566311603 -12.349617715391856 6.668793566311603
S 843.2205362383223 690.1344932832368 843.2205362383223 666.9172119783001
s 5.680824149080253 -6.668793566311603 12.349617715391856 -6.668793566311603
S 867.9197716691061 643.6999306733634 867.9197716691061 666.9172119783001
z" fill="none" stroke="none" style="animation-play-state:paused" ></path>


<use xlink:href="#path-buhzre0wvri-2" x="0" y="0" stroke="#ddeeff" transform="translate(859.79736328125 675.4039916992188)" style="animation-play-state:paused" ></use>
<path id="path8" d="M 885.7716026817329 86.91070318488211
c 0 35.49699423370502 -8.6854347593108 10.195945152234419 -18.88137991154522 10.195945152234419
S 848.0088428586425 122.40769741858713 848.0088428586425 86.91070318488211
s 8.6854347593108 -10.195945152234419 18.88137991154522 -10.195945152234419
S 885.7716026817329 51.41370895117709 885.7716026817329 86.91070318488211
z" fill="none" stroke="none" style="animation-play-state:paused" ></path>


<use xlink:href="#path-buhzre0wvri-3" x="0" y="0" stroke="#bbddff" transform="translate(885.451416015625 96.7126235961914)" style="animation-play-state:paused" ></use>
<path id="path9" d="M 1009.6242740553704 379.59612406165786
c 0 31.99767176138227 -7.829217558636087 9.19082061231193 -17.020038170948016 9.19082061231193
S 975.5841977134743 411.5937958230401 975.5841977134743 379.59612406165786
s 7.829217558636087 -9.19082061231193 17.020038170948016 -9.19082061231193
S 1009.6242740553704 347.5984523002756 1009.6242740553704 379.59612406165786
z" fill="none" stroke="none" style="animation-play-state:paused" ></path>


<use xlink:href="#path-buhzre0wvri-2" x="0" y="0" stroke="#bbddff" transform="translate(1005.5242919921875 396.58941650390625)" style="animation-play-state:paused" ></use>
<path id="path10" d="M 1168.6717400741575 198.0582059397966
c 0 52.07495776927167 -12.741744986098386 14.95770063585463 -27.699445621953018 14.95770063585463
S 1113.2728488302516 250.13316370906827 1113.2728488302516 198.0582059397966
s 12.741744986098386 -14.95770063585463 27.699445621953018 -14.95770063585463
S 1168.6717400741575 145.98324817052494 1168.6717400741575 198.0582059397966
z" fill="none" stroke="none" style="animation-play-state:paused" ></path>


<use xlink:href="#path-buhzre0wvri-3" x="0" y="0" stroke="#aabbcc" transform="translate(1168.611572265625 203.8681640625)" style="animation-play-state:paused" ></use>
<path id="path11" d="M 1274.8459871928574 773.6643489365391
c 0 52.16820338306119 -12.764560402238374 14.984483950453747 -27.74904435269212 14.984483950453747
S 1219.347898487473 825.8325523196003 1219.347898487473 773.6643489365391
s 12.764560402238374 -14.984483950453747 27.74904435269212 -14.984483950453747
S 1274.8459871928574 721.496145553478 1274.8459871928574 773.6643489365391
z" fill="none" stroke="none" style="animation-play-state:paused" ></path>


<use xlink:href="#path-buhzre0wvri-1" x="0" y="0" stroke="#ddeeff" transform="translate(1274.2725830078125 789.2396240234375)" style="animation-play-state:paused" ></use>
<path id="path12" d="M 1306.009936011765 163.9180186225378
c 0 25.6935532752671 -6.286720482246205 7.380063174810762 -13.666783657056968 7.380063174810762
S 1278.6763686976508 189.6115718978049 1278.6763686976508 163.9180186225378
s 6.286720482246205 -7.380063174810762 13.666783657056968 -7.380063174810762
S 1306.009936011765 138.2244653472707 1306.009936011765 163.9180186225378
z" fill="none" stroke="none" style="animation-play-state:paused" ></path>


<use xlink:href="#path-buhzre0wvri-1" x="0" y="0" stroke="#aabbcc" transform="translate(1294.9385986328125 171.97900390625)" style="animation-play-state:paused" ></use>
<path id="path13" d="M 1409.8434826789687 698.4501316615631
c 0 53.081965385417305 -12.988140466644658 15.246947504321993 -28.23508797096665 15.246947504321993
S 1353.3733067370356 751.5320970469804 1353.3733067370356 698.4501316615631
s 12.988140466644658 -15.246947504321993 28.23508797096665 -15.246947504321993
S 1409.8434826789687 645.3681662761458 1409.8434826789687 698.4501316615631
z" fill="none" stroke="none" style="animation-play-state:paused" ></path>


<use xlink:href="#path-buhzre0wvri-1" x="0" y="0" stroke="#bbddff" transform="translate(1373.5489501953125 716.6968383789062)" style="animation-play-state:paused" ></use>
<path id="path14" d="M 1567.533790528136 496.4974294310478
c 0 34.55400962413957 -8.454704482502233 9.925087870763493 -18.379792353265724 9.925087870763493
S 1530.7742058216047 531.0514390551874 1530.7742058216047 496.4974294310478
s 8.454704482502233 -9.925087870763493 18.379792353265724 -9.925087870763493
S 1567.533790528136 461.94341980690825 1567.533790528136 496.4974294310478
z" fill="none" stroke="none" style="animation-play-state:paused" ></path>


<use xlink:href="#path-buhzre0wvri-2" x="0" y="0" stroke="#bbddff" transform="translate(1549.1524658203125 506.4225158691406)" style="animation-play-state:paused" ></use>
<path id="path15" d="M 1649.4946108772099 224.32848198648284
c 0 40.34875242433221 -9.87256708254937 11.589535270818827 -21.4621023533682 11.589535270818827
S 1606.5704061704735 264.67723441081506 1606.5704061704735 224.32848198648284
s 9.87256708254937 -11.589535270818827 21.4621023533682 -11.589535270818827
S 1649.4946108772099 183.97972956215062 1649.4946108772099 224.32848198648284
z" fill="none" stroke="none" style="animation-play-state:paused" ></path>


<use xlink:href="#path-buhzre0wvri-2" x="0" y="0" stroke="#aabbcc" transform="translate(1617.1929931640625 241.9878387451172)" style="animation-play-state:paused" ></use>
<path id="path16" d="M 1795.4798690028465 378.58404533609536
c 0 60.188246585746555 -14.726911398640112 17.28811338101231 -32.01502477965242 17.28811338101231
S 1731.4498194435419 438.7722919218419 1731.4498194435419 378.58404533609536
s 14.726911398640112 -17.28811338101231 32.01502477965242 -17.28811338101231
S 1795.4798690028465 318.39579875034883 1795.4798690028465 378.58404533609536
z" fill="none" stroke="none" style="animation-play-state:paused" ></path>


<use xlink:href="#path-buhzre0wvri-1" x="0" y="0" stroke="#ddeeff" transform="translate(1795.29931640625 388.981201171875)" style="animation-play-state:paused" ></use>
<path id="path17" d="M 1830.9187556186844 641.7921804645201
c 0 51.786012027688265 -12.671045496136488 14.874705582421097 -27.545751078557586 14.874705582421097
S 1775.8272534615694 693.5781924922084 1775.8272534615694 641.7921804645201
s 12.671045496136488 -14.874705582421097 27.545751078557586 -14.874705582421097
S 1830.9187556186844 590.0061684368319 1830.9187556186844 641.7921804645201
z" fill="none" stroke="none" style="animation-play-state:paused" ></path>


<use xlink:href="#path-buhzre0wvri-1" x="0" y="0" stroke="#aabbcc" transform="translate(1798.2725830078125 657.9751586914062)" style="animation-play-state:paused" ></use></g></svg>